<?xml version="1.0" encoding="utf-8"?>
<svg width="14.277344px" height="14.164383px" viewBox="0 0 14.277344 14.164383" version="1.1" xmlns:xlink="http://www.w3.org/1999/xlink" xmlns="http://www.w3.org/2000/svg">
  <g id="SystemOperationLockedFill" transform="translate(-2.3798828 -2.360733)">
    <path d="M16.6565 6.15121C16.6565 5.99651 16.6564 5.84182 16.6564 5.68713C16.6564 5.53798 16.6565 5.38882 16.6565 5.23965C16.6566 4.90355 16.6566 4.56743 16.6564 4.23135C16.6555 3.18669 15.9453 2.40637 14.8986 2.37902C13.7992 2.3503 12.6985 2.36131 11.5984 2.37232C11.4843 2.37346 11.3703 2.3746 11.2562 2.3757C10.7495 2.38058 10.4107 2.75548 10.4108 3.26022C10.4108 3.32575 10.4108 3.39127 10.4108 3.4568C10.4109 3.58785 10.4109 3.7189 10.4108 3.84995C10.4102 4.45535 10.7509 4.79714 11.3608 4.80246C11.4136 4.80292 11.4664 4.80279 11.5192 4.80265C11.5593 4.80255 11.5995 4.80245 11.6396 4.80261C12.0098 4.80431 12.198 4.9558 12.1952 5.24956C12.1923 5.53504 12.0054 5.68469 11.6486 5.68713C11.6063 5.68742 11.564 5.68717 11.5216 5.68693C11.4338 5.68643 11.346 5.68592 11.2584 5.69016C10.751 5.71484 10.4108 6.07186 10.4108 6.57557C10.4108 6.64723 10.4108 6.71889 10.4108 6.79054C10.4109 6.93386 10.4109 7.07718 10.4108 7.2205C10.4104 7.74424 10.7552 8.10096 11.2843 8.11795C11.4274 8.12256 11.5706 8.12166 11.7138 8.12075C11.7751 8.12037 11.8364 8.11998 11.8976 8.12002C12.1732 8.12017 12.1732 8.1201 12.2321 8.39205C12.3815 9.08244 13.0232 9.52599 13.7193 9.41987C14.3586 9.32239 14.748 8.92643 14.8601 8.243C14.877 8.14064 14.9075 8.11544 15.0064 8.11773C15.2726 8.12387 15.5393 8.12667 15.8053 8.11633C16.3136 8.09652 16.6556 7.73796 16.6563 7.23513C16.6567 6.8738 16.6566 6.5125 16.6565 6.15121ZM12.7382 3.25481C12.889 3.25459 13.0399 3.25438 13.1907 3.25438C13.3543 3.25438 13.5179 3.25596 13.6815 3.25753C14.0508 3.26108 14.42 3.26464 14.7885 3.25009C15.4398 3.22438 15.7862 3.72373 15.772 4.21709C15.747 5.08467 15.7568 5.95346 15.7666 6.82175C15.7674 6.89306 15.7682 6.96437 15.769 7.03567C15.771 7.21185 15.7151 7.24437 15.5545 7.2389C15.2964 7.23004 15.0378 7.23203 14.7792 7.23403C14.697 7.23466 14.6149 7.23529 14.5328 7.23558C14.1326 7.23698 13.9802 7.38737 13.9797 7.77823C13.9797 7.81543 13.98 7.85264 13.9804 7.88985C13.9811 7.96937 13.9818 8.04888 13.9788 8.12823C13.9691 8.38119 13.7916 8.55434 13.5411 8.55996C13.2865 8.56565 13.0973 8.38585 13.0885 8.12475C13.0856 8.04265 13.0863 7.96043 13.0869 7.8782C13.0873 7.83142 13.0877 7.78464 13.0874 7.73788C13.0855 7.40407 12.9279 7.24149 12.5867 7.23661C12.2028 7.23122 11.8186 7.23181 11.4347 7.23765C11.3303 7.23927 11.295 7.21119 11.3009 7.10581C11.3041 7.04862 11.2986 6.98713 11.2931 6.92616C11.2828 6.81085 11.2727 6.69739 11.3216 6.61835C11.3734 6.53462 11.4895 6.54829 11.6072 6.56214C11.6634 6.56875 11.7199 6.57539 11.7699 6.5715C12.4678 6.51741 12.9286 6.123 13.0601 5.45885C13.1961 4.77164 12.698 4.06648 11.9995 3.95127C11.8088 3.91979 11.6178 3.91077 11.426 3.91964C11.3304 3.92407 11.2948 3.89695 11.301 3.79807C11.3095 3.6635 11.3115 3.5273 11.3006 3.39309C11.291 3.27707 11.3304 3.25046 11.4441 3.25165C11.8754 3.25603 12.3068 3.25542 12.7382 3.25481ZM7.37316 16.5248C7.78914 16.5246 8.20513 16.5244 8.62111 16.5244C9.05792 16.5244 9.49474 16.5246 9.93155 16.5247C10.9507 16.525 11.9698 16.5254 12.9889 16.5239C14.098 16.5224 14.8715 15.7541 14.8719 14.6581C14.8723 13.4927 14.8722 12.3272 14.872 11.1618L14.872 10.7695C14.872 10.2856 14.5386 9.91207 14.0531 9.89744C13.4403 9.87904 12.8265 9.88362 12.2134 9.89308C11.8973 9.89788 11.7507 10.0704 11.7494 10.3916C11.749 10.5048 11.7492 10.6181 11.7494 10.7313C11.7497 10.8822 11.7499 11.0332 11.7487 11.1841C11.7462 11.4759 11.5655 11.6623 11.2955 11.6563C11.0297 11.6503 10.8602 11.4709 10.8575 11.1875C10.8559 11.0187 10.8563 10.8498 10.8567 10.6809C10.8569 10.5979 10.8571 10.5149 10.857 10.4319C10.8566 10.0412 10.704 9.89094 10.3034 9.88953C10.2198 9.88927 10.1362 9.88865 10.0526 9.88804C9.78921 9.88612 9.52577 9.8842 9.26268 9.89301C9.11303 9.89803 9.06765 9.86611 9.06832 9.70722C9.07366 8.53973 9.07328 7.37219 9.07289 6.20465C9.07277 5.82412 9.07264 5.44359 9.07272 5.06306C9.07279 4.50274 8.73044 4.14351 8.16809 4.14107L8.0513 4.14057C6.76446 4.13503 5.47743 4.12948 4.19068 4.14232C3.17136 4.15252 2.38463 4.92649 2.38292 5.91218C2.37755 8.86083 2.37919 11.8095 2.38314 14.7581C2.38366 15.1347 2.50029 15.4824 2.72922 15.7882C3.10877 16.2952 3.62834 16.5221 4.25335 16.5234C5.29326 16.5256 6.3332 16.5252 7.37316 16.5248ZM8.17986 6.88721C8.18009 7.07961 8.18031 7.272 8.18031 7.4644C8.18031 7.65432 8.18011 7.84424 8.17991 8.03416C8.1793 8.5995 8.1787 9.16482 8.18344 9.73005C8.18448 9.85665 8.15684 9.90062 8.02292 9.89256C7.81932 9.88029 7.61424 9.88451 7.41012 9.89145C7.31302 9.89478 7.28284 9.86588 7.28597 9.76885C7.29312 9.54833 7.29633 9.32774 7.23663 9.11069C7.03796 8.38809 6.41883 8.09292 5.88264 8.13283C5.13242 8.18863 4.63945 8.71281 4.61211 9.42455C4.61151 9.4409 4.61151 9.45729 4.61151 9.47367L4.61143 9.49823C4.60883 9.88931 4.60883 9.88931 4.20514 9.88931C4.12915 9.88931 4.05315 9.88907 3.97715 9.88884C3.78067 9.88823 3.58419 9.88762 3.38778 9.89108C3.30148 9.89264 3.27107 9.87135 3.27122 9.77994C3.27233 9.28637 3.27209 8.79279 3.27185 8.29921C3.27144 7.46653 3.27103 6.63384 3.27711 5.80118C3.28017 5.37869 3.66045 5.03993 4.11921 5.02795C4.41627 5.02017 4.71356 5.02149 5.01085 5.02281C5.12853 5.02333 5.24622 5.02386 5.36389 5.02382C5.60249 5.02374 5.8411 5.0239 6.07971 5.02406C6.72661 5.0245 7.37354 5.02494 8.02046 5.02056C8.14924 5.01968 8.18486 5.04931 8.18367 5.18026C8.17854 5.74922 8.1792 6.31821 8.17986 6.88721ZM3.27306 13.4057C3.27307 13.225 3.27309 13.0442 3.27309 12.8635C3.27311 12.6939 3.27351 12.5243 3.27391 12.3548C3.27503 11.8856 3.27614 11.4164 3.26914 10.9474C3.26683 10.7973 3.31393 10.7685 3.45351 10.7709C3.84158 10.7773 4.22983 10.776 4.61806 10.7747C4.72538 10.7744 4.83269 10.774 4.94 10.7738C5.35278 10.7732 5.50347 10.6252 5.50369 10.2233C5.50374 10.1417 5.50351 10.0601 5.50329 9.97847C5.50282 9.80826 5.50235 9.63804 5.50436 9.46785C5.50772 9.18865 5.68605 9.00678 5.95015 9.00708C6.21434 9.00738 6.39207 9.1891 6.3952 9.46859C6.39704 9.63155 6.39664 9.79455 6.39624 9.95755C6.39599 10.0587 6.39574 10.1598 6.39602 10.2609C6.39699 10.6081 6.55289 10.7688 6.90464 10.773C7.28239 10.7775 7.66037 10.7783 8.03805 10.7714C8.14946 10.7694 8.18963 10.7933 8.18329 10.9115C8.17241 11.1136 8.17316 11.317 8.18307 11.5192C8.18866 11.6334 8.15594 11.6664 8.04006 11.6612C7.71 11.6466 7.38642 11.6718 7.0861 11.835C6.62235 12.0868 6.32433 12.6568 6.41033 13.1448C6.52182 13.7776 6.92521 14.1902 7.51035 14.2828C7.69554 14.3121 7.88021 14.3161 8.06562 14.311C8.15192 14.3085 8.18359 14.3305 8.1824 14.4221C8.17733 14.7905 8.1777 15.159 8.18217 15.5275C8.18322 15.6151 8.15848 15.6418 8.06845 15.6415C7.58678 15.6402 7.1051 15.6403 6.62342 15.6404C5.7858 15.6405 4.94817 15.6407 4.11057 15.6337C3.61723 15.6296 3.27331 15.2519 3.27316 14.7612C3.273 14.3094 3.27303 13.8576 3.27306 13.4057ZM13.979 12.3764C13.9794 12.5482 13.9797 12.7201 13.9797 12.892C13.9798 13.0308 13.9798 13.1695 13.9798 13.3083C13.98 13.796 13.9802 14.2837 13.9797 14.7713C13.9793 15.242 13.6409 15.6262 13.1692 15.6312C12.3407 15.64 11.5121 15.64 10.6835 15.6401C10.1804 15.6401 9.67731 15.6401 9.17422 15.6421C9.06613 15.6425 9.06883 15.5885 9.0718 15.5292C9.0723 15.5192 9.0728 15.5091 9.07279 15.4991C9.07262 15.2609 9.07264 15.0228 9.07266 14.7846C9.07268 14.5069 9.0727 14.2291 9.07242 13.9514C9.07205 13.5916 8.91719 13.4334 8.55553 13.4287C8.44191 13.4272 8.32826 13.4278 8.21462 13.4283C8.06187 13.4291 7.90914 13.4299 7.7565 13.4257C7.57556 13.4207 7.41601 13.3643 7.33292 13.182C7.25705 13.0155 7.27628 12.8597 7.38031 12.7125C7.48092 12.5702 7.63503 12.5476 7.79183 12.5446C7.92821 12.5421 8.06465 12.5427 8.20111 12.5433C8.31863 12.5438 8.43616 12.5443 8.55367 12.5428C8.91622 12.5382 9.0719 12.3804 9.07242 12.0219C9.07256 11.9377 9.07285 11.8535 9.07314 11.7692C9.07413 11.485 9.07511 11.2007 9.07011 10.9165C9.06817 10.8084 9.08837 10.7643 9.20984 10.771C9.41358 10.7822 9.61874 10.7806 9.82279 10.7715C9.93516 10.7664 9.97392 10.7942 9.96766 10.9118C9.95625 11.126 9.95804 11.3407 10.0159 11.5516C10.2145 12.2751 10.8328 12.57 11.3696 12.5306C12.1191 12.4757 12.6133 11.9505 12.6408 11.239C12.6414 11.2227 12.6414 11.2063 12.6414 11.1899L12.6414 11.1654C12.6441 10.7741 12.6441 10.7741 13.0477 10.7741C13.1224 10.7741 13.1971 10.7748 13.2718 10.7755C13.4512 10.7771 13.6305 10.7788 13.8094 10.7708C13.9453 10.7647 13.9855 10.7973 13.9836 10.939C13.9771 11.418 13.9781 11.8972 13.979 12.3764Z" id="Combined-Shape" fill-rule="evenodd" stroke="none" />
  </g>
</svg>
