<?xml version="1.0" encoding="utf-8"?>
<svg width="14.503906px" height="15.342125px" viewBox="0 0 14.503906 15.342125" version="1.1" xmlns:xlink="http://www.w3.org/1999/xlink" xmlns="http://www.w3.org/2000/svg">
  <defs>
    <path d="M-7.52248e-17 0L14.5037 0L14.5037 15.3421L-7.52248e-17 15.3421L-7.52248e-17 0Z" id="path_1" />
    <clipPath id="mask_1">
      <use xlink:href="#path_1" />
    </clipPath>
  </defs>
  <g id="SystemOperationLockedFill" transform="translate(-2.2666016 -1.8218765)">
    <g id="Group-6" transform="translate(2.266202 1.8218771)">
      <g id="Group-3">
        <path d="M-7.52248e-17 0L14.5037 0L14.5037 15.3421L-7.52248e-17 15.3421L-7.52248e-17 0Z" id="Clip-2" fill="none" fill-rule="evenodd" stroke="none" />
        <g clip-path="url(#mask_1)">
          <path d="M12.717 12.4282C12.5927 12.2529 12.5059 12.3591 12.4185 12.4638C12.4027 12.4827 12.39 12.504 12.376 12.5242C12.3814 12.5253 12.3869 12.5267 12.3923 12.528C12.3869 12.5267 12.3814 12.5253 12.376 12.5242C12.3579 12.5269 12.3398 12.5296 12.3216 12.5323C12.222 12.4308 12.1226 12.3291 12.0226 12.228C12.0001 12.2053 11.9711 12.1848 11.9425 12.2126C11.9134 12.2409 11.938 12.2646 11.9597 12.2886C12.034 12.3709 12.1062 12.455 12.1793 12.5385C12.2227 12.5995 12.2591 12.667 12.3111 12.72C12.4033 12.814 12.3841 12.8793 12.288 12.9603C12.1731 13.0572 12.074 13.1716 11.9679 13.2785L11.8942 13.2807C11.6967 13.1357 11.4991 12.9909 11.3017 12.8459C11.3017 12.8459 11.3017 12.8459 11.3016 12.8459C11.2876 12.8366 11.2735 12.8271 11.2595 12.8177C11.2511 12.8261 11.2426 12.8346 11.2341 12.8429C11.2466 12.8557 11.2592 12.8685 11.2717 12.8813C11.3266 12.9393 11.3876 12.9932 11.4346 13.0568C11.4886 13.1299 11.6181 13.156 11.5884 13.2827C11.543 13.3026 11.5159 13.3389 11.4952 13.3811C11.5077 13.3835 11.52 13.3874 11.5325 13.3882C11.52 13.3874 11.5077 13.3835 11.4952 13.3811C11.4041 13.4282 11.365 13.4847 11.469 13.5572C11.5775 13.6328 11.5347 13.6894 11.4581 13.76C11.3288 13.8789 11.2086 14.0073 11.0847 14.1316C11.1003 14.1431 11.1163 14.1523 11.1325 14.1597C11.1648 14.1744 11.1981 14.1815 11.2318 14.1843C11.1981 14.1815 11.1648 14.1744 11.1325 14.1597C11.1163 14.1523 11.1003 14.1431 11.0847 14.1316C11.0459 14.1694 11.0072 14.207 10.9684 14.2447C10.9177 14.2905 10.8655 14.335 10.8163 14.3824C10.7357 14.4601 10.6603 14.5289 10.5332 14.5487C10.344 14.5782 10.2954 14.4093 10.1736 14.3482C10.15 14.3243 10.1263 14.3003 10.1026 14.2764L10.1026 14.2764C10.0255 14.2146 10.0278 14.1354 10.0327 14.0456C10.0598 13.5431 10.0797 13.0402 10.102 12.5376C10.1279 12.5129 10.1278 12.486 10.1094 12.4575L10.1094 12.4575C10.1476 12.3457 10.1146 12.2607 10.0235 12.1811C9.87367 12.05 9.7248 11.9158 9.59252 11.7685C9.47175 11.6338 9.37993 11.6253 9.28511 11.7835C9.26093 11.8086 9.23666 11.8336 9.21248 11.8586C8.99306 12.0466 8.78676 12.2472 8.59352 12.4606C8.56796 12.4841 8.54231 12.5075 8.51675 12.5311C8.57717 12.532 8.63759 12.5331 8.69801 12.5342C8.63759 12.5331 8.57717 12.532 8.51675 12.5311C8.47928 12.5674 8.44189 12.6039 8.4045 12.6402C8.40496 12.6811 8.40588 12.722 8.40696 12.7629C8.40588 12.722 8.40488 12.6811 8.4045 12.6402C8.38032 12.6652 8.35621 12.6901 8.3321 12.715L8.3321 12.715C8.11268 12.903 7.90638 13.1037 7.71314 13.3171C7.6875 13.3406 7.66193 13.3641 7.63637 13.3875C7.68074 13.3884 7.7252 13.3897 7.76957 13.3907C7.7252 13.3897 7.68074 13.3884 7.63629 13.3875C7.5989 13.4239 7.56143 13.4603 7.52405 13.4967C7.50002 13.5215 7.47606 13.5463 7.45211 13.5711C7.45218 13.6095 7.45195 13.6479 7.45165 13.6863C7.45134 13.7247 7.45096 13.7631 7.45088 13.8015C7.45096 13.7631 7.45134 13.7247 7.45165 13.6863C7.45195 13.6479 7.45218 13.6095 7.45203 13.5711C7.3989 13.6076 7.35245 13.6386 7.29249 13.5702C7.23153 13.5006 7.15553 13.4435 7.08612 13.3809C7.0323 13.3829 6.97841 13.3868 6.92451 13.3894C6.97841 13.3868 7.0323 13.3829 7.08612 13.3809C7.06493 13.3394 7.03806 13.303 6.99284 13.2832C6.73142 13.0953 6.62378 12.8528 6.71376 12.54C6.71584 12.5135 6.71799 12.487 6.72013 12.4604C6.74624 12.1884 6.77226 11.9165 6.79837 11.6444C6.79967 11.6191 6.80098 11.5937 6.80221 11.5683C6.84597 11.3095 6.87476 11.0493 6.87875 10.7868C6.88098 10.7629 6.88313 10.7391 6.88535 10.7152C6.80259 10.7131 6.74516 10.7116 6.70478 10.7035C6.74516 10.7116 6.80259 10.7131 6.88535 10.7152C6.93411 10.4562 6.95722 10.1948 6.9639 9.93178C6.98854 9.90885 6.98839 9.88122 6.97994 9.85203C6.98785 9.76273 7.03699 9.66498 6.95891 9.5886C6.82708 9.4598 6.74539 9.29911 6.64397 9.15097L6.54409 8.99715C6.40797 8.71356 6.25542 8.439 6.07269 8.18087C6.04828 8.14302 6.02379 8.10509 5.99937 8.06723L5.99937 8.06723C5.93956 7.9559 5.86002 7.85898 5.76981 7.76975C5.73358 7.72943 5.69726 7.68911 5.66095 7.64879C5.65481 7.67634 5.65342 7.70583 5.65442 7.73608C5.65511 7.75624 5.65688 7.77677 5.65895 7.7973C5.66302 7.83837 5.66855 7.87944 5.66962 7.91789C5.66855 7.87944 5.66302 7.83837 5.65895 7.7973C5.65688 7.77677 5.65511 7.75624 5.65442 7.73608C5.65342 7.70583 5.65481 7.67634 5.66095 7.64879C5.5692 7.54044 5.47746 7.4321 5.38571 7.32376C5.37304 7.28881 5.35116 7.26201 5.315 7.24774C5.13619 7.05084 5.07339 6.77464 4.85228 6.60664C4.84176 6.59626 4.83132 6.58588 4.8208 6.57558C4.79316 6.53892 4.76544 6.50233 4.73773 6.46567C4.71554 6.4405 4.69343 6.41534 4.67124 6.3901C4.48698 6.13907 4.30955 5.88378 4.16053 5.61079C4.14748 5.58562 4.13435 5.56039 4.12123 5.53515C4.06925 5.41217 4.01727 5.28919 3.96537 5.16621L3.93359 5.06123C4.22848 5.14792 4.49504 5.29703 4.77266 5.42173L4.84706 5.46668C4.9107 5.50588 4.97443 5.54515 5.03807 5.58436C5.05013 5.59346 5.0621 5.6025 5.07416 5.61161C5.26694 5.76274 5.4598 5.91394 5.65258 6.06515C5.66755 6.10002 5.69166 6.12406 5.73196 6.12906C5.88022 6.22016 6.02855 6.31133 6.1768 6.40242C6.20474 6.4243 6.23269 6.44625 6.26064 6.46813C6.33833 6.55818 6.43223 6.62927 6.53449 6.69072C6.55584 6.70849 6.57726 6.72626 6.59868 6.74403C6.60781 6.65734 6.61403 6.59723 6.62754 6.55579C6.61403 6.59723 6.60781 6.65734 6.59868 6.74403C6.83576 6.97535 7.11238 7.15142 7.41234 7.29493C7.4389 7.33667 7.47883 7.35736 7.52765 7.36385C7.79652 7.51028 8.06539 7.65678 8.33433 7.80328C8.35851 7.81903 8.3827 7.83486 8.40688 7.85069C8.55705 8.05267 8.7658 8.0576 8.98976 8.0169C9.06323 8.00354 9.13824 7.99816 9.21256 7.98905C9.23958 7.98733 9.26661 7.98562 9.29363 7.98383C9.55966 7.95919 9.82568 7.93447 10.0917 7.90983C10.1191 7.9058 10.1464 7.90169 10.1738 7.89766C10.1729 7.74944 10.1753 7.60107 10.1698 7.45301C10.1753 7.60107 10.1729 7.74944 10.1738 7.89766C10.4559 7.87899 10.7384 7.86533 11.017 7.81425C11.0413 7.81209 11.0656 7.81 11.0899 7.80783C11.3598 7.80343 11.6274 7.7761 11.8936 7.73316C11.9196 7.73182 11.9457 7.73048 11.9716 7.72913C12.0485 7.72293 12.0996 7.76266 12.1504 7.81351C12.2515 7.91461 12.3583 8.01033 12.4627 8.1083C12.4892 8.13227 12.5157 8.15631 12.5423 8.18035C12.6048 8.24375 12.6672 8.30721 12.7297 8.37061C12.7285 8.39137 12.7275 8.41205 12.7264 8.43273C12.5354 8.62097 12.3443 8.80921 12.1533 8.99745C12.1277 9.0209 12.1021 9.04434 12.0766 9.06779L12.0766 9.06779C12.0392 9.10415 12.0017 9.14059 11.9643 9.17695C11.9402 9.20189 11.9161 9.22676 11.8919 9.25162C11.6726 9.43971 11.4661 9.64042 11.2729 9.8539C11.2472 9.87742 11.2215 9.90094 11.1957 9.92446C11.1586 9.96067 11.1213 9.99696 11.0841 10.0332C11.0599 10.0581 11.0357 10.0831 11.0115 10.1081L11.0115 10.1081C10.6138 10.4813 10.6086 10.3414 11.0109 10.7239C11.0208 10.7575 11.0429 10.779 11.0773 10.7889L11.0773 10.7889C11.1856 10.9022 11.2525 11.0732 11.4404 11.0817C11.5913 11.0886 11.7452 11.0879 11.8945 11.0494C11.9198 11.0485 11.9452 11.0477 11.9705 11.0468C12.2393 11.0566 12.5063 11.0342 12.7731 11.0075C12.7994 11.007 12.8258 11.0064 12.8522 11.0059C13.1542 10.9644 13.4273 11.0013 13.6147 11.2716C13.6291 11.3092 13.6594 11.3302 13.6957 11.345C13.7242 11.2954 13.7352 11.2444 13.7381 11.1926C13.7352 11.2444 13.7242 11.2954 13.6957 11.345C13.6954 11.3947 13.6951 11.4443 13.6948 11.4939C13.6491 11.5326 13.6609 11.5872 13.6531 11.6362C13.3708 11.8844 13.1055 12.1489 12.8455 12.4187C12.8039 12.4383 12.7621 12.4918 12.717 12.4282L12.717 12.4282ZM6.91438 14.1873C6.95798 14.1859 7.00159 14.1845 7.0452 14.1834C7.00159 14.1845 6.95798 14.1859 6.91438 14.1873L6.91438 14.1873ZM6.76098 13.3227C6.7912 13.3255 6.82159 13.3289 6.85163 13.33C6.82159 13.3289 6.7912 13.3255 6.76098 13.3227L6.76098 13.3227ZM6.16682 11.6399C6.12091 11.6455 6.075 11.6508 6.03139 11.6508C6.075 11.6508 6.12091 11.6455 6.16682 11.6399L6.16682 11.6399ZM4.78003 9.62541C4.78374 9.58696 4.78465 9.54216 4.78392 9.48989C4.78465 9.54216 4.78374 9.58696 4.78003 9.62541C4.7764 9.66379 4.76987 9.69582 4.75927 9.72248C4.76987 9.69582 4.7764 9.66379 4.78003 9.62541L4.78003 9.62541ZM4.87965 4.77607C4.86578 4.80194 4.85753 4.83085 4.85336 4.86237C4.85753 4.83085 4.86578 4.80194 4.87965 4.77607L4.87965 4.77607ZM6.64409 6.53789C6.64173 6.54246 6.63992 6.5479 6.63792 6.55299C6.63992 6.5479 6.64173 6.54246 6.64409 6.53789L6.64409 6.53789ZM1.59425 10.6793C1.4933 10.6515 1.39241 10.6237 1.29145 10.5959C1.27802 10.5653 1.24953 10.5586 1.22005 10.5535C1.2209 10.5675 1.22105 10.5806 1.22044 10.5928C1.22105 10.5806 1.2209 10.5675 1.22005 10.5535C0.988961 10.3994 0.84447 10.1841 0.75472 9.93013C0.751419 9.90437 0.748041 9.87854 0.744663 9.85278C0.700056 9.57247 0.776754 9.3174 0.91564 9.07525C0.95111 9.06047 0.971302 9.03292 0.983433 8.99864C1.06558 8.93092 1.14773 8.86312 1.22988 8.7954C1.2275 8.75582 1.2242 8.71625 1.22136 8.67667C1.2242 8.71625 1.2275 8.75582 1.22988 8.7954C1.26412 8.7774 1.29836 8.75941 1.33268 8.74141C1.58504 8.64337 1.83848 8.64501 2.09275 8.73417C2.11886 8.74791 2.14496 8.76165 2.17106 8.77538L2.17106 8.77538C2.26849 8.85312 2.36592 8.93084 2.46327 9.00865C2.48039 9.05293 2.50342 9.09295 2.54573 9.11946C2.67302 9.34921 2.72715 9.59338 2.69836 9.8539C2.67325 9.87503 2.67041 9.9025 2.67486 9.93207C2.5888 10.2137 2.41529 10.4301 2.15947 10.585C1.99156 10.7331 1.7878 10.677 1.59425 10.6793L1.59425 10.6793ZM2.10112 2.32485C2.10005 2.35584 2.09851 2.38675 2.09728 2.41774C2.09851 2.38675 2.10005 2.35584 2.10112 2.32485C1.90473 1.97354 1.88815 1.61707 2.06918 1.25508C2.08208 1.2335 2.09498 1.21192 2.10788 1.19034L2.10788 1.19034C2.14174 1.14935 2.17559 1.10843 2.20945 1.06751C2.41797 0.859785 2.67133 0.751889 2.96983 0.745019C2.99808 0.74935 3.02634 0.753755 3.05451 0.758086C3.34511 0.802663 3.56223 0.960363 3.7395 1.17937C3.79255 1.29092 3.84568 1.40255 3.89873 1.51418C3.90418 1.50051 3.9127 1.48648 3.91946 1.47259C3.9127 1.48648 3.90418 1.50051 3.89873 1.51418C3.92384 1.68816 3.91846 1.86184 3.89382 2.03529C3.84422 2.07442 3.84123 2.13445 3.82165 2.18709L3.82165 2.18709C3.66372 2.50734 3.40031 2.69618 3.0483 2.77473C3.02373 2.7766 2.99916 2.77846 2.97459 2.78033C2.67171 2.77048 2.41352 2.66303 2.20446 2.44776C2.17007 2.40677 2.13559 2.36585 2.10112 2.32485L2.10112 2.32485ZM2.0949 1.17901C2.10034 1.18376 2.10587 1.18842 2.11139 1.19299C2.10587 1.18842 2.10024 1.18376 2.0949 1.17901ZM4.24169 1.26063C4.27685 1.26106 4.31201 1.26063 4.34725 1.25994C4.31201 1.26063 4.27685 1.26106 4.24169 1.26063L4.24169 1.26063ZM2.41688 3.0096C2.38195 3.01029 2.35199 3.01167 2.32623 3.01452C2.35199 3.01167 2.38195 3.01029 2.41688 3.0096L2.41688 3.0096ZM2.30414 3.01805C2.289 3.02089 2.27604 3.02486 2.26407 3.02944C2.27604 3.02486 2.289 3.02089 2.30414 3.01805L2.30414 3.01805ZM2.29114 5.5525C2.31923 5.55828 2.34979 5.5594 2.38179 5.55819C2.34979 5.5594 2.31923 5.55828 2.29114 5.5525L2.29114 5.5525ZM9.20734 1.17212L9.20734 1.17212C9.2121 1.17675 9.21693 1.18123 9.22192 1.18556L9.32365 1.06445C9.53309 0.853811 9.78998 0.750993 10.0897 0.745841C10.1179 0.750321 10.146 0.754801 10.1741 0.759281C10.4632 0.805426 10.6766 0.966486 10.8535 1.18287C11.0488 1.47259 11.0426 1.78694 10.9732 2.10899C10.8159 2.45836 10.5547 2.68834 10.1673 2.77339C10.143 2.77555 10.1188 2.77772 10.0945 2.77988C9.77616 2.77712 9.51405 2.65071 9.29286 2.43432C9.28526 2.38713 9.25425 2.35569 9.21732 2.32829L9.10269 2.10839C9.09701 2.0836 9.09125 2.05874 9.08549 2.03395C9.00327 2.03424 8.92097 2.0326 8.83866 2.0323C8.92097 2.0326 9.00327 2.03424 9.08549 2.03395C9.02338 1.7635 9.05939 1.50402 9.17785 1.25381C9.1926 1.23111 9.20726 1.20834 9.22192 1.18556C9.21693 1.18123 9.2121 1.17675 9.20734 1.17212L9.20734 1.17212ZM14.4746 11.5788C14.2802 11.5755 14.0857 11.5693 13.8913 11.5702C14.0857 11.5693 14.2802 11.5755 14.4746 11.5788C14.5463 11.2706 14.4921 10.9974 14.2394 10.7796C14.2144 10.7563 14.1895 10.733 14.1645 10.7097C14.0467 10.5723 13.9218 10.4421 13.7691 10.3399C13.746 10.3009 13.7043 10.2968 13.6655 10.2872C13.4038 10.1385 13.1258 10.2088 12.8515 10.2299C12.8252 10.2304 12.7989 10.2311 12.7727 10.2318C12.5202 10.241 12.2677 10.2502 12.0152 10.2595C12.015 10.2502 12.0145 10.2409 12.0137 10.2317C12.1022 10.1447 12.1907 10.0578 12.2792 9.97083C12.3175 9.93289 12.3557 9.89489 12.394 9.85696L12.7755 9.48556C12.8146 9.44837 12.8536 9.41119 12.8926 9.374L13.1596 9.1143C13.1976 9.0763 13.2358 9.03837 13.274 9.00036C13.5302 8.77225 13.6208 8.49836 13.5166 8.1705C13.5094 8.1481 13.5024 8.1257 13.4953 8.10337C13.3609 7.79798 13.0822 7.61646 12.8516 7.39365C12.8278 7.36826 12.8041 7.34287 12.7804 7.31748C12.7757 7.32196 12.771 7.32644 12.7664 7.33092L12.7664 7.33092C12.771 7.32644 12.7757 7.32196 12.7804 7.31748C12.7541 7.29434 12.7279 7.27119 12.7017 7.24797C12.5145 7.01754 12.2719 6.91622 11.9707 6.95176C11.9444 6.95303 11.9183 6.9543 11.8921 6.95557C11.6252 6.98036 11.3583 7.00515 11.0914 7.03001C11.0644 7.0315 11.0375 7.033 11.0105 7.03449C10.7319 7.06033 10.4532 7.08616 10.1745 7.11192C10.1448 7.10423 10.1163 7.10341 10.0924 7.12686C10.0356 7.12932 9.97731 7.12476 9.92234 7.13567C9.76342 7.16725 9.72595 7.10393 9.75336 6.96042C9.78445 6.79772 9.8005 6.6324 9.82307 6.46821C9.82561 6.44342 9.82814 6.4187 9.83067 6.39398C9.88987 6.13616 9.92825 5.87534 9.94829 5.61191C9.97317 5.5901 9.97547 5.56263 9.96933 5.53298L10.0895 4.71835C9.82445 4.71828 9.5595 4.71813 9.29448 4.71798C9.28135 4.82923 9.2683 4.94049 9.25517 5.05174C9.18546 5.22938 9.17386 5.41575 9.16688 5.60287C9.16688 5.60287 9.16688 5.60295 9.16688 5.60295C9.10054 5.8616 9.07597 6.12645 9.04219 6.38995C9.03766 6.41624 9.03313 6.44244 9.02868 6.46873C8.98776 6.71551 8.94684 6.96221 8.90592 7.20899C8.8934 7.21019 8.88089 7.21175 8.86845 7.21362C8.72289 7.11476 8.57456 7.0206 8.41003 6.95333C8.39322 6.92555 8.36796 6.91188 8.33525 6.91077C8.06692 6.76247 7.79859 6.61418 7.53026 6.46582C7.47844 6.43005 7.42662 6.39421 7.37487 6.35837C7.12067 6.15699 6.86655 5.95561 6.61234 5.75423C6.59737 5.71928 6.5695 5.69867 6.53365 5.68687C6.48083 5.63222 6.41994 5.59018 6.34363 5.57241C6.30647 5.5922 6.26862 5.60392 6.23023 5.61049C6.19185 5.61699 6.15308 5.6184 6.11407 5.61743C6.15308 5.61833 6.19192 5.61699 6.23023 5.61049C6.26862 5.60392 6.30647 5.5922 6.34363 5.57241C6.33472 5.5397 6.30916 5.53336 6.27929 5.5338C6.09634 5.39865 5.91346 5.2635 5.73058 5.12836C5.70809 5.11088 5.68552 5.09348 5.66302 5.07601C5.46341 4.91092 5.24966 4.76748 5.00606 4.66982C5.00606 4.66982 5.00606 4.66982 5.00606 4.66982C4.94832 4.60097 4.86694 4.57558 4.78295 4.5552C4.51063 4.42871 4.24929 4.27131 3.93236 4.27131C3.90618 4.27206 3.87992 4.2728 3.85374 4.27355C3.58211 4.29005 3.37428 4.40706 3.24138 4.64189C3.20906 4.65608 3.201 4.68356 3.19908 4.71447C3.04246 5.00515 3.11716 5.27971 3.26065 5.54948C3.26902 5.57039 3.27755 5.5913 3.28599 5.61221C3.39179 5.88863 3.52376 6.15206 3.69735 6.39481C3.74718 6.49113 3.79509 6.58879 3.88867 6.65458C4.01535 6.88299 4.21105 7.05958 4.37074 7.2632C4.38541 7.29912 4.38502 7.34257 4.42487 7.36594C4.50825 7.5394 4.63224 7.68321 4.7722 7.8153C4.78272 7.82605 4.79331 7.8368 4.80391 7.84756C4.85873 7.95239 4.94041 8.03602 5.02725 8.11554C5.04552 8.15937 5.0684 8.19969 5.1137 8.22299C5.30901 8.45132 5.45964 8.70841 5.61696 8.96123C5.62755 9.00805 5.64713 9.04912 5.69243 9.07376C5.72137 9.13529 5.75024 9.19681 5.7791 9.25834C5.77795 9.27208 5.7768 9.28574 5.77557 9.29948C5.76183 9.30284 5.74809 9.3062 5.73434 9.30964L5.65066 9.30986C5.3851 9.30979 5.11945 9.30964 4.85389 9.30956C4.82602 9.30956 4.79815 9.30956 4.77036 9.30956L4.77036 9.30956C4.49197 9.30956 4.21351 9.30949 3.93512 9.30941C3.90733 9.30941 3.87946 9.30941 3.85167 9.30941C3.79447 9.3071 3.73558 9.29515 3.68031 9.30411C3.48384 9.33614 3.34864 9.28544 3.31862 9.07391C3.321 9.04255 3.31332 9.01559 3.2833 8.99857C3.25252 8.85745 3.17137 8.74201 3.08446 8.62948C3.0625 8.57833 3.02672 8.53809 2.98073 8.50598L2.98073 8.50598C2.86557 8.36732 2.73613 8.24524 2.5663 8.17035C2.52124 8.11957 2.46235 8.09179 2.39724 8.07417C2.30212 8.04602 2.27724 7.9895 2.29513 7.89258C2.32984 7.70501 2.34995 7.51491 2.37605 7.32592C2.38189 7.29956 2.38772 7.27313 2.39348 7.24677C2.43187 6.98752 2.47018 6.72828 2.50857 6.46903C2.51064 6.44334 2.51264 6.41765 2.51471 6.39204C2.57083 6.13399 2.61229 5.87384 2.63033 5.61049C2.63386 5.58772 2.6374 5.56487 2.64093 5.54209C2.57605 5.53089 2.50235 5.54127 2.43202 5.54792C2.50235 5.54127 2.57605 5.53089 2.64093 5.54209C2.7058 5.27105 2.73459 4.9947 2.77014 4.71932C2.77336 4.69319 2.77667 4.66713 2.77989 4.64099C2.81835 4.38107 2.8569 4.12115 2.89536 3.86123C2.89828 3.83689 2.90119 3.81247 2.90411 3.78806C2.8721 3.78514 2.84 3.7835 2.80784 3.78283C2.84 3.7835 2.8721 3.78514 2.90411 3.78806C2.96016 3.70689 2.91079 3.59997 2.97298 3.5203C2.99993 3.51589 3.0268 3.51148 3.05375 3.50715L3.05375 3.50708C3.34872 3.48938 3.61866 3.40366 3.85535 3.22774L4.19808 2.92847C4.37243 2.75039 4.48913 2.53841 4.55224 2.30372C4.58533 2.18074 4.6403 2.12302 4.7702 2.14087L4.85397 2.14087L5.65058 2.14087L5.73442 2.14087L6.53104 2.14087L6.6148 2.14087L7.44973 2.14087L7.53349 2.14087C7.79913 2.14102 8.06477 2.14124 8.33041 2.14139C8.34393 2.14348 8.35744 2.14558 8.37103 2.14767C8.43897 2.4447 8.55851 2.71619 8.78231 2.93631C8.79337 2.97103 8.81325 2.99739 8.85187 3.00613C8.87674 3.00538 8.90162 3.00366 8.92642 3.00396C8.90162 3.00366 8.87674 3.00538 8.85187 3.00613C8.94676 3.12941 9.07091 3.21684 9.21179 3.28367C9.2339 3.29547 9.25609 3.30719 9.2782 3.31891C9.28833 3.22162 9.2954 3.15442 9.31021 3.1079C9.2954 3.15442 9.28833 3.22155 9.2782 3.31891C9.45847 3.37484 9.51405 3.48662 9.44695 3.66067C9.43244 3.69823 9.44204 3.74467 9.4405 3.78701C9.43613 3.80799 9.43183 3.82905 9.42745 3.85003L9.42737 3.85003C9.38584 4.11361 9.3443 4.37712 9.30269 4.6407C9.3 4.66646 9.29724 4.69222 9.29448 4.71798C9.5595 4.71813 9.82445 4.71828 10.0895 4.71835C10.0911 4.69289 10.0927 4.66743 10.0942 4.64196C10.123 4.54467 10.1358 4.44544 10.1321 4.34426C10.2068 4.16364 10.205 3.97017 10.2321 3.78156C10.23 3.5807 10.3066 3.46452 10.5345 3.43099C10.7109 3.40501 10.8754 3.31205 11.014 3.1916C11.1075 3.10716 11.201 3.02278 11.2944 2.93833C11.5227 2.70544 11.6642 2.43148 11.7074 2.11108C11.7351 2.09054 11.7367 2.06269 11.7305 2.03268C11.76 1.76857 11.7715 1.50574 11.6693 1.25135C11.6626 1.22656 11.6558 1.20177 11.6492 1.17698C11.5476 0.857843 11.3683 0.59068 11.0915 0.388851C11.0626 0.343602 11.0256 0.307462 10.9721 0.290438C10.7309 0.129229 10.471 0.0201381 10.1723 0.0196154C10.147 -0.00375582 10.119 -0.0026358 10.0897 0.0113272C9.80012 -0.00860927 9.52918 0.0488108 9.27981 0.196057C9.1688 0.246682 9.05939 0.299771 8.97763 0.392958C8.7192 0.603821 8.52772 0.858441 8.43544 1.17795C8.4078 1.19758 8.40788 1.22529 8.41187 1.25418C8.40657 1.27337 8.40135 1.29249 8.39606 1.31168C8.37471 1.31877 8.35337 1.32587 8.3321 1.33303C8.06523 1.33303 7.79844 1.33303 7.53157 1.33303C7.50493 1.33303 7.47829 1.33303 7.45165 1.33303C7.17203 1.33303 6.89249 1.33303 6.61288 1.33303C6.58624 1.33303 6.5596 1.33303 6.53296 1.33303C6.26616 1.33303 5.99929 1.33303 5.7325 1.33303C5.70586 1.33303 5.67922 1.33303 5.65258 1.33303C5.38571 1.33303 5.11892 1.33303 4.85205 1.33303C4.82541 1.33303 4.79876 1.33303 4.77212 1.33303C4.69443 1.31578 4.59147 1.3623 4.55147 1.25008L4.55147 1.25008C4.54825 1.20811 4.55508 1.16339 4.516 1.13165C4.41681 0.829469 4.23071 0.586722 3.97973 0.388253C3.95501 0.352263 3.92806 0.319633 3.87747 0.320753C3.64338 0.114594 3.36123 0.032309 3.05282 0.0178234C3.02726 -0.0054732 2.99916 -0.00360649 2.96999 0.00998317C2.68208 -0.00278513 2.41022 0.0494081 2.16224 0.198446C2.05298 0.251312 1.94535 0.306492 1.85974 0.394003C1.59855 0.602253 1.40892 0.856872 1.32247 1.17832C1.29199 1.19624 1.28938 1.22432 1.29337 1.25463C1.12762 1.87528 1.22796 2.43992 1.66696 2.93318C1.69222 2.95715 1.71748 2.98119 1.74281 3.00516C1.83441 3.12545 1.95049 3.2155 2.09222 3.27404C2.11463 3.28785 2.13698 3.30159 2.15939 3.31533C2.17237 3.17891 2.17966 3.10215 2.21106 3.05899C2.17966 3.10215 2.17237 3.17891 2.15939 3.31533C2.19118 3.46198 2.11916 3.60288 2.13368 3.74863C2.07717 3.86758 2.06888 3.99541 2.06074 4.12332C2.03594 4.29558 2.01122 4.46784 1.98642 4.6401C1.98435 4.66571 1.98228 4.6914 1.9802 4.71708C1.9217 4.98708 1.87955 5.2594 1.85905 5.5347C1.83379 5.55635 1.83134 5.58376 1.83778 5.61355C1.80009 5.87228 1.76239 6.13108 1.72477 6.38988C1.72147 6.41594 1.71825 6.44207 1.71502 6.46813C1.67648 6.72805 1.63802 6.98797 1.59948 7.24782C1.59663 7.27223 1.59387 7.29665 1.59103 7.32099C1.56761 7.448 1.53176 7.57419 1.52408 7.7021C1.51464 7.85898 1.47111 7.97382 1.28992 7.99211C1.14643 8.05237 0.978058 8.05655 0.859364 8.17274C0.652225 8.2763 0.489309 8.42646 0.364243 8.61664C0.32455 8.64285 0.297141 8.67682 0.292842 8.72513C0.215683 8.80159 0.172996 8.89575 0.145818 8.99775C0.137756 9.01836 0.129695 9.03896 0.121634 9.05965C0.0163751 9.3171 -0.032377 9.58121 0.0232081 9.85748C0.0255881 9.88205 0.0279682 9.90661 0.0303482 9.93118C0.0440909 10.1741 0.134532 10.3919 0.261825 10.5975C0.295145 10.6706 0.335452 10.7389 0.403014 10.788C0.606391 11.0661 0.874643 11.2548 1.21399 11.3458C1.21399 11.3134 1.21345 11.281 1.21276 11.2485C1.21345 11.281 1.21399 11.3134 1.21399 11.3458C1.23487 11.3522 1.25568 11.3586 1.27656 11.365C1.54719 11.4543 1.81982 11.4557 2.09414 11.3823C2.12047 11.3768 2.1468 11.3714 2.17321 11.3659C2.524 11.2686 2.81283 11.0853 3.01897 10.7878C3.05782 10.7753 3.07517 10.7453 3.08638 10.7101C3.12722 10.6482 3.18933 10.5912 3.20545 10.5237C3.28745 10.1792 3.50549 10.052 3.8542 10.1141L3.93259 10.1141C4.21266 10.114 4.49274 10.114 4.77289 10.114C4.799 10.114 4.82518 10.114 4.85136 10.1139C5.11869 10.1139 5.38594 10.1139 5.65319 10.1139L5.73181 10.1139C5.81388 10.1161 5.89642 10.1249 5.97787 10.1189C6.09657 10.1101 6.15238 10.1326 6.12513 10.2695C6.09642 10.4133 6.09657 10.5626 6.08413 10.7094C6.08267 10.7357 6.08114 10.7618 6.07968 10.788C6.05419 11.0477 6.02862 11.3074 6.00313 11.5671C6.00183 11.5925 6.00045 11.6179 5.99914 11.6433L5.99914 11.6433C5.95484 11.9149 5.92452 12.1877 5.92029 12.4629C5.91776 12.4857 5.9153 12.5086 5.91277 12.5315C5.87423 12.797 5.80029 13.0645 5.96091 13.3184C5.97035 13.366 5.98809 13.4088 6.03246 13.4362C6.17879 13.6211 6.35392 13.7786 6.53234 13.933C6.55545 13.956 6.57864 13.979 6.60175 14.0019C6.66447 14.0626 6.72712 14.1233 6.78977 14.1841L6.78977 14.1841C6.80919 14.2163 6.83399 14.2422 6.87338 14.2509C7.03722 14.3978 7.23115 14.4467 7.44896 14.4182C7.47982 14.428 7.50769 14.425 7.53026 14.3997C7.65863 14.3925 7.76673 14.3433 7.85456 14.2519C7.90101 14.2436 7.93187 14.216 7.95314 14.1765C8.08051 14.0527 8.20788 13.929 8.33525 13.8053C8.37425 13.7681 8.41325 13.7309 8.45233 13.6937C8.54124 13.6071 8.63022 13.5206 8.7192 13.4339C8.75744 13.396 8.79567 13.3582 8.8339 13.3202C8.96642 13.1904 9.09893 13.0606 9.23152 12.9308C9.24895 12.9271 9.26645 12.9234 9.28396 12.9196C9.26638 13.2402 9.24688 13.5606 9.23213 13.8812C9.22507 14.0347 9.20595 14.1877 9.23597 14.3425C9.29617 14.6528 9.53524 14.8328 9.75029 15.0315C9.77939 15.0777 9.81386 15.1185 9.86683 15.1406C9.91996 15.1924 9.97678 15.239 10.0515 15.2591C10.0805 15.2995 10.125 15.2968 10.1678 15.2984C10.4608 15.3806 10.7431 15.3416 11.0185 15.2264C11.1076 15.1624 11.2252 15.1359 11.2853 15.0339C11.4889 14.836 11.6925 14.6381 11.8961 14.4401L11.8961 14.4401C11.9851 14.3521 12.0741 14.264 12.1632 14.1759C12.3374 13.9489 12.6075 13.8168 12.7791 13.5872C12.8671 13.4979 12.9551 13.4086 13.0431 13.3192C13.2228 13.0974 13.4835 12.9551 13.6568 12.7271L13.9268 12.4645C14.0042 12.3928 14.0819 12.3213 14.159 12.2493C14.3374 12.0828 14.4723 11.8956 14.464 11.6406C14.3652 11.641 14.2663 11.6424 14.1676 11.6432C14.2663 11.6424 14.3652 11.641 14.464 11.6406C14.4675 11.62 14.471 11.5994 14.4746 11.5788L14.4746 11.5788Z" id="Fill-1" fill-rule="evenodd" stroke="none" />
        </g>
      </g>
      <path d="M11.2098 12.815C11.2071 12.8187 11.2301 12.8395 11.2412 12.8523C11.2512 12.8427 11.2612 12.8329 11.2712 12.8232C11.2521 12.8073 11.2329 12.7834 11.2098 12.815" id="Fill-4" fill-rule="evenodd" stroke="none" />
    </g>
  </g>
</svg>