<?xml version="1.0" encoding="utf-8"?>
<svg width="14.277344px" height="15.253954px" viewBox="0 0 14.277344 15.253954" version="1.1" xmlns:xlink="http://www.w3.org/1999/xlink" xmlns="http://www.w3.org/2000/svg">
  <g id="SystemOperationLockedFill" transform="translate(-2.3798828 -1.7705479)">
    <path d="M16.6254 4.94711C16.6655 5.00969 16.6625 5.07549 16.6418 5.14273C16.6454 5.41758 16.6489 5.69254 16.6526 5.96739C16.6526 6.00545 16.6528 6.04362 16.6528 6.08168L16.6417 6.96137C16.6404 6.98167 16.6392 7.00209 16.638 7.0224C16.63 7.06079 16.6219 7.09929 16.6138 7.13768C16.6106 7.17153 16.6072 7.20537 16.604 7.23932C16.6128 7.5772 16.5733 7.9103 16.4948 8.23952C16.49 8.27558 16.4851 8.31153 16.4803 8.34759C16.4476 8.70644 16.3874 9.06018 16.2666 9.40249L16.2469 9.50901C16.1743 9.87074 16.0719 10.2239 15.9212 10.5634C15.9192 10.5768 15.9183 10.5906 15.9174 10.6045C15.9143 10.6527 15.9112 10.701 15.8615 10.7343C15.7984 10.8952 15.7354 11.056 15.6723 11.2169C15.6182 11.3305 15.5641 11.4442 15.5099 11.5578C15.5075 11.6012 15.4978 11.6411 15.4545 11.6651C15.4518 11.7091 15.448 11.7526 15.3978 11.774C15.2487 12.1478 15.0333 12.4867 14.804 12.8184C14.7731 12.8594 14.7422 12.9006 14.7112 12.9417C14.6414 13.0973 14.5405 13.2323 14.4155 13.3512C14.4073 13.4198 14.3634 13.4637 14.3058 13.4985C14.1946 13.6794 14.0589 13.8418 13.9005 13.9868C13.8656 14.0236 13.8306 14.0606 13.7957 14.0974C13.645 14.3044 13.461 14.482 13.2651 14.6489L13.0875 14.8117C12.9768 14.9066 12.866 15.0013 12.7553 15.0962C12.7044 15.1608 12.6505 15.2221 12.5695 15.2539L12.0555 15.6433C12.0159 15.7066 11.9488 15.7317 11.8828 15.7582C11.6356 15.9509 11.375 16.124 11.0886 16.2596C10.983 16.3531 10.8633 16.4244 10.7267 16.4684C10.3774 16.6658 10.0341 16.8749 9.63752 16.9795C9.53659 17.0374 9.43729 17.0443 9.34041 16.9713C9.01543 16.8612 8.7145 16.705 8.42386 16.5293C8.24663 16.4703 8.08964 16.3783 7.94836 16.2607C7.70559 16.1532 7.49044 16.0041 7.2783 15.8504C7.23806 15.8193 7.19772 15.7882 7.15749 15.7572C6.90153 15.623 6.68453 15.4395 6.46765 15.2557C6.38603 15.2241 6.33216 15.1625 6.28163 15.0973L6.06787 14.9186C5.99897 14.8751 5.92533 14.8364 5.88683 14.7607C5.65122 14.5568 5.42382 14.3455 5.2363 14.0981L5.13572 13.9884C5.01954 13.8956 4.92994 13.7819 4.85213 13.6588C4.7956 13.6197 4.75017 13.5731 4.73722 13.5042C4.57306 13.3538 4.45964 13.1675 4.34045 12.9853C4.30438 12.93 4.2682 12.8747 4.23201 12.8194C4.00183 12.4886 3.78021 12.1534 3.64379 11.774C3.57582 11.736 3.552 11.6726 3.53813 11.6037C3.39489 11.3237 3.26217 11.0395 3.17292 10.7384C3.1054 10.6916 3.12575 10.6111 3.09442 10.5504C2.97615 10.2075 2.84609 9.86786 2.78922 9.50846C2.7817 9.47439 2.77407 9.44033 2.76656 9.40637C2.65222 9.06129 2.58216 8.7081 2.55557 8.34693C2.54991 8.31253 2.54424 8.27813 2.53869 8.24373C2.48801 8.15058 2.48823 8.05138 2.48845 7.95218C2.48855 7.90475 2.48866 7.85732 2.4832 7.81055C2.43811 7.75351 2.43488 7.69071 2.45626 7.6248C2.45187 7.51506 2.44759 7.40543 2.44331 7.29569C2.37199 7.16952 2.37707 7.03377 2.3821 6.89956C2.38357 6.86039 2.38503 6.82135 2.38459 6.78272C2.37823 6.22182 2.38389 5.6607 2.39037 5.09979C2.3906 5.07981 2.38977 5.05947 2.38893 5.03901C2.38568 4.95936 2.38235 4.87782 2.44158 4.80808C2.44644 4.67992 2.45129 4.55176 2.45615 4.42371C2.43187 4.32385 2.44609 4.2282 2.48956 4.13566C2.49312 4.09573 2.49214 4.05531 2.49116 4.0149C2.48897 3.92402 2.48677 3.83318 2.53615 3.74808C2.5447 3.71368 2.55337 3.67939 2.56204 3.645C2.6439 3.38934 2.85534 3.30091 3.10286 3.27284C3.26298 3.25464 3.42587 3.2583 3.58749 3.25209C3.62298 3.2178 3.66599 3.21647 3.71142 3.22601C4.05409 3.18396 4.39675 3.1419 4.7393 3.09985C4.77653 3.09497 4.81375 3.09008 4.85098 3.08531C5.21688 3.01596 5.58278 2.94672 5.94857 2.87737C5.98313 2.86983 6.01782 2.86228 6.05238 2.85474C6.34106 2.78528 6.62973 2.71593 6.91841 2.64647C6.95413 2.61107 6.9954 2.59443 7.04662 2.61251C7.08338 2.60574 7.12014 2.59909 7.15691 2.59232C7.21957 2.52164 7.31043 2.51731 7.39518 2.49845C7.6998 2.40346 8.00443 2.30837 8.30906 2.21339C8.3397 2.20041 8.37045 2.18742 8.4012 2.17444C8.77774 2.0505 9.10271 1.7954 9.51798 1.77055C9.55775 1.77254 9.59752 1.77465 9.63717 1.77665C10.0154 1.88739 10.3657 2.06248 10.7274 2.21161L10.8005 2.23758C11.0816 2.32479 11.3625 2.41212 11.6436 2.49944L11.6436 2.49933C11.8021 2.54871 11.9606 2.59787 12.1191 2.64724C12.4416 2.72369 12.7643 2.80015 13.0868 2.8766C13.0929 2.87633 13.099 2.87604 13.1051 2.87575C13.1832 2.87199 13.2614 2.86823 13.3264 2.92464C13.6495 2.98234 13.9726 3.04015 14.2956 3.09796C14.3075 3.09737 14.3193 3.09664 14.3312 3.09591C14.4232 3.09023 14.5152 3.08456 14.597 3.14246C14.9001 3.18118 15.2033 3.2198 15.5064 3.25841L15.6229 3.26551C15.6369 3.26544 15.6508 3.26534 15.6648 3.26524C15.9672 3.26308 16.2695 3.26092 16.4398 3.57753C16.4975 3.61316 16.4971 3.66616 16.4967 3.71914C16.4966 3.73051 16.4965 3.74188 16.497 3.75307C16.572 4.10137 16.6129 4.45278 16.6018 4.80886C16.6048 4.84403 16.6078 4.87909 16.6108 4.91416C16.6248 4.92148 16.6296 4.93246 16.6254 4.94711ZM3.60564 4.60513C3.59998 4.6726 3.59431 4.74017 3.58865 4.80775C3.58738 4.84558 3.58611 4.88342 3.58472 4.92126C3.59431 5.27222 3.57628 5.62208 3.53813 5.97105C3.53813 6.00667 3.53824 6.04229 3.53836 6.0779C3.55362 6.42787 3.56876 6.77784 3.58402 7.12781L3.5868 7.24199C3.59223 7.30923 3.59778 7.37636 3.60333 7.4436C3.65281 7.51972 3.6527 7.60128 3.63223 7.68505C3.63674 7.75773 3.64113 7.8303 3.64553 7.90298C3.73478 8.06009 3.70645 8.24007 3.75223 8.40562L3.94264 9.33136C3.99468 9.38109 3.99203 9.44412 3.98938 9.50721L3.98935 9.50801C4.10634 9.85732 4.22334 10.2065 4.34034 10.5557C4.383 10.5825 4.39652 10.6218 4.39317 10.6684C4.51213 10.9219 4.63109 11.1753 4.74994 11.4287C4.83364 11.527 4.89503 11.6366 4.9319 11.7587C5.17422 12.1134 5.41642 12.468 5.65874 12.8227C5.70614 12.8396 5.72822 12.8758 5.73908 12.9205C5.83041 12.9989 5.91365 13.0834 5.96255 13.1938C6.01493 13.2205 6.0503 13.2607 6.06649 13.3158C6.27632 13.5212 6.48603 13.7266 6.69586 13.932C6.7554 13.9854 6.81505 14.0387 6.87471 14.0921L7.16916 14.3561C7.22569 14.3961 7.28211 14.4362 7.33853 14.4762C7.60431 14.663 7.86998 14.8499 8.13565 15.0366L8.42976 15.2287C8.79277 15.4214 9.15566 15.6143 9.51867 15.807C9.55775 15.7898 9.59694 15.7726 9.63602 15.7553C9.97776 15.5678 10.3194 15.3802 10.661 15.1926C10.7416 15.1406 10.822 15.0884 10.9025 15.0364C11.2269 14.8041 11.5512 14.5719 11.8756 14.3398C11.9123 14.3088 11.949 14.2779 11.9858 14.2469L12.1623 14.0912C12.2223 14.038 12.2823 13.9848 12.3424 13.9315C12.5742 13.6922 12.806 13.4528 13.0378 13.2134C13.091 13.1537 13.144 13.094 13.1972 13.0343C13.2306 12.9959 13.2639 12.9576 13.2972 12.9193C13.3255 12.8546 13.3571 12.7922 13.4253 12.7564C13.6437 12.4298 13.8621 12.1033 14.0805 11.7766C14.1868 11.5859 14.2933 11.3951 14.3997 11.2044L14.6422 10.6674C14.6399 10.6221 14.6437 10.5792 14.692 10.5545C14.8103 10.2055 14.9285 9.85643 15.0467 9.50735C15.0542 9.46907 15.0619 9.43067 15.0694 9.39228C15.1497 9.03876 15.2302 8.68524 15.3107 8.33173L15.3105 8.33173C15.3171 8.29977 15.3237 8.26781 15.3302 8.23586L15.4474 7.24054L15.445 4.80985C15.3512 4.36945 15.3511 4.3709 14.8616 4.31653C14.7119 4.29988 14.5635 4.27259 14.4145 4.25017L14.4058 4.25077C14.3057 4.25773 14.2057 4.26468 14.1162 4.20579C13.8059 4.17882 13.5014 4.1239 13.2037 4.03535C13.1886 4.0355 13.1733 4.03633 13.1581 4.03716C13.0943 4.04062 13.0306 4.04408 12.9756 3.99796C12.6881 3.93427 12.4004 3.87058 12.1128 3.80689C12.0059 3.80023 11.906 3.7736 11.8187 3.71113C11.7632 3.70136 11.7076 3.69171 11.652 3.68206C11.6275 3.67362 11.603 3.66508 11.5785 3.65665C11.3239 3.60871 11.0786 3.53259 10.8412 3.4324C10.829 3.43156 10.8165 3.43133 10.8041 3.4311C10.7508 3.43012 10.6974 3.42914 10.659 3.38002C10.3098 3.26673 9.96192 3.15034 9.6329 2.98833C9.59266 2.97912 9.55255 2.96991 9.51232 2.96059C9.15196 3.09685 8.80352 3.26274 8.42872 3.36305C8.38744 3.37891 8.34629 3.39478 8.30513 3.41065C8.02686 3.50363 7.75287 3.60993 7.46015 3.65687L7.38627 3.67917L7.27772 3.69515C7.17147 3.76517 7.04951 3.78891 6.92511 3.80578C6.64233 3.87113 6.36823 3.97388 6.07331 3.98609C6.031 3.9984 5.98857 4.01083 5.94625 4.02315C5.58451 4.09505 5.22798 4.19514 4.85502 4.20523C4.81537 4.21655 4.77572 4.22798 4.73606 4.2393C4.39421 4.28823 4.05467 4.35414 3.70738 4.36069C3.64694 4.39037 3.64387 4.4421 3.64081 4.49382C3.63839 4.5345 3.63598 4.57518 3.60564 4.60513ZM7.16232 8.90361C7.31134 8.68957 7.36186 8.42038 7.56672 8.23752C7.81712 7.96423 8.06753 7.69093 8.31806 7.41753C8.42025 7.34163 8.49332 7.24554 8.53378 7.12725C8.74789 6.82744 8.87656 6.49478 8.94662 6.13938C8.99067 6.08889 9.00142 6.03019 8.9931 5.96661C8.99945 5.94031 9.00165 5.91224 9.01286 5.88794C9.02655 5.8584 9.02995 5.82248 9.0333 5.7872C9.03902 5.72682 9.04456 5.66829 9.10119 5.64671C9.17385 5.61901 9.20774 5.67018 9.2425 5.72265C9.26133 5.75108 9.28041 5.77989 9.30605 5.79673C9.35992 5.83202 9.4079 5.87529 9.45842 5.91502C9.50524 5.97172 9.55195 6.02842 9.59877 6.08512L9.59885 6.08512C9.76867 6.41865 9.91143 6.7615 9.98588 7.12776C9.97964 7.22652 9.98207 7.32394 10.0312 7.4146C10.0312 7.64861 10.0313 7.88262 10.0314 8.11664C10.0198 8.19464 10.008 8.27265 9.99629 8.35065C9.97293 8.46616 9.94403 8.58079 9.92727 8.69718C9.88264 9.00887 10.0451 9.18629 10.3682 9.18197C10.4911 9.1803 10.6147 9.17597 10.7255 9.11362C10.775 9.11994 10.8155 9.10618 10.8437 9.0649C11.1756 8.98523 11.38 8.73757 11.6193 8.50922C11.6938 8.62606 11.7619 8.7328 11.8298 8.83954C11.8814 8.95561 11.933 9.07156 11.9845 9.18751C11.9923 9.23767 12 9.28771 12.0078 9.33787C11.9983 9.37082 12.0073 9.39412 12.0441 9.40344L12.0437 9.40366C12.0485 9.43862 12.0531 9.47357 12.0577 9.50841L12.0577 9.50841C12.0734 9.76351 12.0892 10.0186 12.105 10.2736C12.0622 10.4022 12.0424 10.5333 12.0548 10.6684C12.0042 10.7487 11.9884 10.8377 11.9832 10.9294C11.9218 11.0054 11.8912 11.0926 11.881 11.1873L11.5803 11.6594C11.5454 11.697 11.5104 11.7347 11.4755 11.7723C11.273 11.9655 11.0579 12.144 10.8201 12.2964C10.7652 12.318 10.6984 12.3179 10.6626 12.3751C10.3351 12.5079 9.99777 12.603 9.64065 12.6231C9.59765 12.6258 9.55453 12.6287 9.51152 12.6316C9.1618 12.609 8.82006 12.5494 8.49104 12.4302C8.42931 12.3998 8.36769 12.3695 8.30595 12.3391C8.02572 12.1891 7.78514 11.991 7.56028 11.7737C7.38825 11.6113 7.30733 11.391 7.1686 11.2073L6.98131 10.6691C6.98145 10.6529 6.98241 10.6365 6.98338 10.6202C6.98727 10.5544 6.99116 10.4886 6.94096 10.4314C6.91738 10.1225 6.94408 9.81544 6.97888 9.50885C6.98374 9.47191 6.98848 9.43507 6.99322 9.39812L6.9932 9.39812C7.04961 9.23324 7.10602 9.06848 7.16232 8.90361ZM9.96791 6.07877C10.1308 6.07596 10.2936 6.07314 10.4565 6.07036C10.4447 6.01244 10.441 5.95097 10.3843 5.91169C10.2221 5.58424 9.99739 5.30429 9.699 5.08015C9.66131 5.01446 9.59634 4.98539 9.52721 4.96165C9.50628 4.947 9.48524 4.93246 9.46432 4.91782C9.37865 4.84425 9.28431 4.78544 9.17159 4.75737C8.72373 4.55897 8.6013 4.56652 8.40049 4.80442C8.3297 4.8711 8.3258 4.95344 8.32188 5.0362C8.32027 5.07022 8.31866 5.10431 8.31239 5.13741C8.25297 5.4522 8.30361 5.78386 8.15574 6.0849C8.0421 6.47858 7.84013 6.82533 7.55539 7.12825C7.49828 7.14578 7.46255 7.18495 7.43851 7.23566L7.27446 7.40643C7.21769 7.44305 7.17214 7.48798 7.15492 7.55412C6.94208 7.74941 6.77988 7.97954 6.65017 8.23186C6.62832 8.27014 6.60647 8.30842 6.58451 8.3467C6.38716 8.67126 6.2593 9.01823 6.21907 9.39339C6.36497 9.39427 6.51087 9.39518 6.65677 9.39609L6.2191 9.39346C6.18188 9.42652 6.18511 9.46802 6.19263 9.51041C6.14384 9.85827 6.09829 10.2061 6.18384 10.555C6.1832 10.5715 6.182 10.5882 6.1808 10.6048C6.17484 10.6874 6.16888 10.77 6.23182 10.8419C6.27575 11.134 6.3909 11.4014 6.53795 11.6577C6.57263 11.714 6.60732 11.7701 6.642 11.8264C6.77772 12.0589 6.93657 12.2735 7.15773 12.4399C7.17669 12.495 7.22039 12.5263 7.2723 12.5497C7.38224 12.6688 7.50929 12.7661 7.66016 12.8336C7.73068 12.9028 7.80988 12.9592 7.90849 12.9867C8.03658 13.054 8.1574 13.138 8.30919 13.1526C8.33983 13.165 8.37035 13.1774 8.40087 13.1898C8.75902 13.3301 9.13001 13.3972 9.51741 13.3714C9.55707 13.3707 9.59684 13.3702 9.63649 13.3696C10.0175 13.3788 10.3815 13.308 10.7275 13.1541C10.9133 12.9898 11.2029 13.019 11.3766 12.8323C11.5736 12.7358 11.7389 12.6013 11.8828 12.4413C11.882 12.3504 11.881 12.2594 11.8803 12.1685C11.881 12.2594 11.882 12.3504 11.8829 12.4413C11.9533 12.3969 12.0175 12.3467 12.054 12.2708C12.1898 12.1374 12.3065 11.9905 12.3942 11.8234L12.4976 11.6569C12.6417 11.3983 12.7595 11.1306 12.8034 10.8376C12.8675 10.758 12.8606 10.6671 12.8538 10.5762C12.8532 10.5689 12.8527 10.5617 12.8521 10.5544C12.9261 10.2061 12.8883 9.85882 12.8416 9.51174L12.0577 9.50841C12.319 9.50952 12.5804 9.51063 12.8416 9.51163C12.8419 9.5077 12.8421 9.50376 12.8424 9.49983C12.8459 9.44157 12.8495 9.38321 12.8066 9.33332C12.7579 8.98102 12.6341 8.65424 12.4449 8.34966C12.4087 8.29484 12.3726 8.24003 12.3366 8.1851C12.2459 8.03564 12.1437 7.8955 11.9952 7.79241C11.9767 7.73616 11.9326 7.70453 11.8796 7.68157C11.5364 7.36355 11.2915 7.40261 11.0977 7.80063C11.0423 7.91447 10.9682 8.01988 10.9027 8.12907C10.8059 8.09854 10.8174 8.03656 10.8286 7.97551C10.8332 7.95045 10.8378 7.92555 10.8349 7.90304C10.8273 7.84457 10.8305 7.7851 10.8337 7.7256C10.8395 7.61699 10.8454 7.5083 10.7852 7.4055C10.7821 7.35179 10.779 7.29798 10.7758 7.24427C10.8013 7.12577 10.7875 7.01203 10.7316 6.9034C10.696 6.60869 10.608 6.32985 10.4565 6.07043L9.96791 6.07877Z" id="Combined-Shape"  fill-rule="evenodd" stroke="none" />
  </g>
</svg>