<?xml version="1.0" encoding="utf-8"?>
<svg width="20px" height="20px" viewBox="0 0 20 20" version="1.1" xmlns:xlink="http://www.w3.org/1999/xlink" xmlns="http://www.w3.org/2000/svg">
  <g id="SystemOperationClose">
    <path d="M0 0L20 0L20 20L0 20L0 0Z" id="BG" fill="none" fill-rule="evenodd" stroke="none" />
    <path d="M16.4818 3.51819C16.8072 3.84362 16.8072 4.37126 16.4818 4.6967L11.1783 9.99994L16.4818 15.3033C16.8072 15.6287 16.8072 16.1564 16.4818 16.4818C16.1564 16.8072 15.6287 16.8072 15.3033 16.4818L9.99994 11.1783L4.6967 16.4818C4.37126 16.8072 3.84362 16.8072 3.51819 16.4818C3.19275 16.1564 3.19275 15.6287 3.51819 15.3033L8.8214 9.99994L3.51819 4.6967C3.19275 4.37126 3.19275 3.84362 3.51819 3.51819C3.84362 3.19275 4.37126 3.19275 4.6967 3.51819L9.99994 8.8214L15.3033 3.51819C15.6287 3.19275 16.1564 3.19275 16.4818 3.51819Z" id="Path" fill-rule="evenodd" stroke="none" />
  </g>
</svg>