<?xml version="1.0" encoding="utf-8"?>
<svg width="14.199219px" height="13.322594px" viewBox="0 0 14.199219 13.322594" version="1.1" xmlns:xlink="http://www.w3.org/1999/xlink" xmlns="http://www.w3.org/2000/svg">
  <g id="SystemOperationLockedFill" transform="translate(-2.4179688 -3.6200638)">
    <path d="M14.5341 3.62007L4.50199 3.62007C3.35126 3.62007 2.4184 4.54556 2.4184 5.68721L2.4184 12.4978L2.4225 12.6286C2.49048 13.7093 3.39552 14.565 4.50199 14.565L10.5182 14.5645L13.4558 16.8289L13.52 16.8718C13.8697 17.0723 14.3275 16.8254 14.3275 16.4057L14.3273 14.5645L14.5341 14.565C15.6848 14.565 16.6177 13.6395 16.6177 12.4978L16.6177 5.68721C16.6177 4.54556 15.6848 3.62007 14.5341 3.62007ZM4.50199 4.69192L14.5341 4.69192C15.0882 4.69192 15.5373 5.13753 15.5373 5.68721L15.5373 12.4978C15.5373 13.0475 15.0882 13.4931 14.5341 13.4931L13.7873 13.4931L13.714 13.498C13.4503 13.5335 13.2471 13.7577 13.2471 14.029L13.2469 15.3109L11.0358 13.6059C10.9411 13.5328 10.8244 13.4931 10.7044 13.4931L4.50199 13.4931C3.94794 13.4931 3.49878 13.0475 3.49878 12.4978L3.49878 5.68721C3.49878 5.13753 3.94794 4.69192 4.50199 4.69192Z" id="Message" fill-rule="evenodd" stroke="none" />
  </g>
</svg>