<?xml version="1.0" encoding="utf-8"?>
<svg width="16.180664px" height="16.052963px" viewBox="0 0 16.180664 16.052963" version="1.1" xmlns:xlink="http://www.w3.org/1999/xlink" xmlns="http://www.w3.org/2000/svg">
  <g id="SystemOperationLockedFill" transform="translate(-1.4277344 -1.4164352)">
    <path d="M10.2867 16.3931C10.5881 16.3597 10.8576 16.5767 10.8912 16.8687C10.9141 17.1417 10.7427 17.3872 10.4842 17.4547L10.4042 17.4694L10.3446 17.4694C10.0675 17.4694 9.83327 17.2692 9.79968 16.9855C9.7661 16.6935 9.9844 16.4265 10.2867 16.3931ZM8.57595 16.3735L8.65739 16.3768C8.95209 16.4185 9.16955 16.6846 9.12841 16.985C9.09483 17.2612 8.85889 17.4614 8.59022 17.4614L8.5538 17.4604L8.5538 17.4604L8.52305 17.4531C8.22079 17.4197 8.01088 17.1527 8.04531 16.8515C8.07584 16.5792 8.3076 16.3821 8.57595 16.3735ZM11.8732 16.0264C12.1587 15.9263 12.4693 16.0765 12.5701 16.3593C12.6708 16.643 12.5281 16.9517 12.2426 17.0518C12.1839 17.0693 12.1167 17.0777 12.0579 17.0777C11.8312 17.0777 11.6213 16.9442 11.5457 16.7181C11.445 16.4344 11.5961 16.1257 11.8732 16.0264ZM6.36557 16.3101C6.46633 16.0348 6.78538 15.8929 7.07085 15.993C7.34792 16.1015 7.49066 16.4102 7.3899 16.6939C7.30594 16.9108 7.09604 17.0443 6.87774 17.0443C6.80973 17.0443 6.7518 17.036 6.68463 17.0109C6.40755 16.9025 6.25642 16.5938 6.36557 16.3101ZM13.3343 15.3086C13.5946 15.1501 13.9304 15.2169 14.0891 15.4663C14.2579 15.7175 14.1823 16.0512 13.9304 16.2181C13.8381 16.2765 13.7365 16.3098 13.6357 16.3098C13.4594 16.3098 13.2831 16.2181 13.1748 16.0587C13.0152 15.8092 13.0824 15.4755 13.3343 15.3086ZM4.86308 15.4007C5.0059 15.1747 5.29902 15.0981 5.53984 15.2066L5.6179 15.2497L5.6179 15.2581C5.86978 15.4166 5.93695 15.7595 5.76987 16.009C5.65988 16.1592 5.48356 16.2434 5.30724 16.2434C5.20732 16.2434 5.09734 16.2176 5.00582 16.1508C4.75393 15.984 4.69432 15.6511 4.86308 15.4007ZM14.5937 14.2738C14.8036 14.0569 15.1479 14.0485 15.3662 14.2571C15.5845 14.4574 15.592 14.7994 15.3821 15.0247C15.2738 15.1332 15.1311 15.1924 14.9883 15.1924C14.854 15.1924 14.7188 15.1415 14.6105 15.0414C14.3922 14.8328 14.3838 14.4907 14.5937 14.2738ZM3.60332 14.1736C3.82162 13.965 4.17426 13.9825 4.37577 14.1986C4.57728 14.4156 4.56804 14.7576 4.34219 14.9662C4.24143 15.0663 4.10709 15.1081 3.97192 15.1081C3.83002 15.1081 3.67889 15.0497 3.57814 14.9412C3.36823 14.7159 3.38418 14.3738 3.60332 14.1736ZM9.52001 3.87556C12.6215 3.87556 15.1454 6.38358 15.1454 9.46562C15.1454 12.5485 12.6215 15.0557 9.52001 15.0557C6.41847 15.0557 3.89459 12.5485 3.89459 9.46562C3.89459 6.38358 6.41847 3.87556 9.52001 3.87556ZM9.52001 5.04363C7.06581 5.04363 5.07005 7.02685 5.07005 9.46561C5.07005 11.9044 7.06581 13.8876 9.52001 13.8876C11.9742 13.8876 13.97 11.9044 13.97 9.46561C13.97 7.02685 11.9742 5.04363 9.52001 5.04363ZM15.5757 12.9806C15.7269 12.7219 16.0627 12.6302 16.323 12.7803C16.5841 12.9305 16.6672 13.2643 16.5161 13.5237C16.4153 13.699 16.2315 13.7899 16.0459 13.7899C15.9544 13.7899 15.8612 13.7649 15.7688 13.7231C15.5086 13.5646 15.4254 13.2392 15.5757 12.9806ZM2.67076 12.6893C2.90502 12.5534 3.20048 12.6142 3.36128 12.8162L3.40963 12.8887L3.41802 12.8887C3.56076 13.1482 3.46924 13.4811 3.20812 13.6321C3.12416 13.6813 3.0318 13.6989 2.94028 13.6989C2.74633 13.6989 2.56161 13.5987 2.46086 13.4235C2.31813 13.1641 2.41132 12.8312 2.67076 12.6893ZM10.2276 11.4286C10.4459 11.3536 10.6809 11.462 10.7565 11.6789C10.8405 11.8967 10.7229 12.1387 10.5046 12.2129C10.4626 12.2296 10.4123 12.2388 10.3619 12.2388C10.194 12.2388 10.0353 12.1387 9.96727 11.9635C9.8917 11.7457 10.0093 11.5037 10.2276 11.4286ZM8.24547 11.6624C8.33027 11.4455 8.56536 11.337 8.78366 11.4205C9.00196 11.4956 9.11111 11.7375 9.03555 11.9544C8.96838 12.1213 8.80801 12.2298 8.64093 12.2298C8.59055 12.2298 8.54018 12.2214 8.48896 12.2047C8.2715 12.1213 8.16235 11.8793 8.24547 11.6624ZM16.2308 11.4875C16.3148 11.2039 16.6254 11.0445 16.9109 11.1288C17.1964 11.2197 17.3643 11.5209 17.2719 11.8046C17.2048 12.0382 16.9865 12.1884 16.7522 12.1884C16.701 12.1884 16.6422 12.1884 16.5918 12.1717C16.3323 12.0883 16.1699 11.8318 16.212 11.5727L16.2308 11.4951L16.2308 11.4875ZM2.10839 11.0289C2.39386 10.9446 2.69612 11.1115 2.78008 11.3952C2.86488 11.688 2.69612 11.9876 2.41149 12.0718C2.36027 12.0793 2.3099 12.0877 2.25952 12.0877C2.01603 12.0877 1.79773 11.9375 1.73056 11.6955C1.6466 11.4127 1.81536 11.1115 2.10839 11.0289ZM11.3358 10.5195C11.4534 10.3185 11.7053 10.2517 11.9068 10.3694C12.1083 10.4862 12.1755 10.7356 12.0579 10.9367C11.9823 11.0702 11.8396 11.1453 11.6969 11.1453C11.6213 11.1453 11.5541 11.1286 11.487 11.0861C11.2855 10.9701 11.2183 10.7198 11.3358 10.5195ZM7.12081 10.336C7.32231 10.2184 7.5742 10.2851 7.69258 10.4937C7.80929 10.6864 7.73373 10.9442 7.53222 11.0619C7.46505 11.0952 7.39788 11.1119 7.32231 11.1119C7.17958 11.1119 7.03685 11.0368 6.96212 10.9033C6.84373 10.7023 6.9193 10.4445 7.12081 10.336ZM17.0954 9.38435C17.3976 9.40938 17.6243 9.65968 17.6075 9.96004C17.5932 10.2229 17.3945 10.4255 17.1462 10.4634L17.0618 10.4698L17.0282 10.4698C16.7268 10.4523 16.4992 10.1945 16.5169 9.8933C16.5328 9.59293 16.7939 9.36766 17.0954 9.38435ZM1.94828 9.2758C2.24298 9.26746 2.50326 9.49356 2.52005 9.79309C2.52769 10.0669 2.33409 10.3049 2.07804 10.3528L1.99949 10.3613L1.9743 10.3613C1.68044 10.3613 1.43695 10.1352 1.42855 9.84399C1.41176 9.54362 1.64685 9.29332 1.94828 9.2758ZM11.9322 8.62577C12.1589 8.58322 12.3764 8.74258 12.4192 8.96702C12.4528 9.19312 12.3008 9.40921 12.075 9.45093L11.9994 9.46011L11.9994 9.46011C11.7979 9.46011 11.6216 9.30909 11.588 9.10969C11.546 8.88442 11.7047 8.66749 11.9322 8.62577ZM7.04598 8.58539L7.12098 8.59257C7.34767 8.63428 7.4988 8.85038 7.45682 9.07648C7.41484 9.27589 7.23852 9.41772 7.04541 9.41772C7.02022 9.41772 6.99503 9.41772 6.96984 9.40938C6.73475 9.36766 6.59202 9.15157 6.634 8.92547C6.67206 8.72597 6.84811 8.58448 7.04598 8.58539L7.04598 8.58539ZM16.8771 7.64968C17.1718 7.59879 17.4572 7.79986 17.5068 8.09105C17.558 8.3839 17.3565 8.66757 17.0618 8.7168C17.0282 8.72598 16.9946 8.72598 16.9619 8.72598C16.7007 8.72598 16.4749 8.54159 16.4321 8.27543C16.3741 7.98258 16.5748 7.69974 16.8771 7.64968ZM2.11226 7.53298L2.19202 7.54072C2.48672 7.59912 2.67899 7.8828 2.62946 8.18316C2.57824 8.4418 2.35238 8.61701 2.09126 8.61701C2.05852 8.61701 2.02493 8.61701 1.99135 8.60867C1.69664 8.55861 1.49514 8.27577 1.55391 7.98292C1.60047 7.71062 1.84757 7.52658 2.11226 7.53298ZM10.8238 7.28257C10.9666 7.10736 11.2353 7.0815 11.4116 7.23251C11.5879 7.38269 11.6131 7.6405 11.462 7.81571C11.378 7.91583 11.2604 7.96673 11.1429 7.96673C11.0421 7.96673 10.9498 7.93336 10.8658 7.86661C10.6895 7.71559 10.6727 7.45778 10.8238 7.28257ZM7.65892 7.20748C7.83524 7.0573 8.10307 7.0815 8.24581 7.26589C8.38089 7.42163 8.37534 7.64923 8.2486 7.7975L8.19543 7.84909C8.11231 7.91583 8.01911 7.9417 7.92675 7.9417C7.80165 7.9417 7.68327 7.89164 7.5993 7.79152C7.45741 7.60713 7.4826 7.34932 7.65892 7.20748ZM9.52244 6.54811C9.74914 6.54811 9.94225 6.73166 9.94225 6.96528C9.94225 7.19055 9.74914 7.38244 9.52244 7.38244C9.28735 7.38244 9.10263 7.19055 9.10263 6.96528C9.10263 6.73166 9.28735 6.54811 9.52244 6.54811ZM16.2559 6.01405C16.5246 5.8889 16.852 6.02239 16.9696 6.29772C17.0871 6.57305 16.962 6.8901 16.6849 7.00691C16.6178 7.04028 16.5422 7.04863 16.475 7.04863C16.2559 7.04863 16.0552 6.92348 15.9704 6.72323C15.8453 6.4479 15.9788 6.13086 16.2559 6.01405ZM2.11687 6.18984C2.24281 5.91451 2.56187 5.78853 2.83894 5.91451C3.10846 6.03883 3.23356 6.35588 3.11601 6.63121C3.02365 6.83145 2.82215 6.94825 2.61224 6.94825C2.53668 6.94825 2.46951 6.93991 2.39394 6.90654C2.11687 6.78222 1.99177 6.46434 2.11687 6.18984ZM15.265 4.56239C15.5085 4.378 15.8536 4.42889 16.0299 4.67085C16.2138 4.91281 16.155 5.24571 15.9207 5.4301C15.82 5.50519 15.7024 5.53856 15.5924 5.53856C15.4254 5.53856 15.2574 5.46347 15.1558 5.32163C14.972 5.07968 15.0215 4.7376 15.265 4.56239ZM3.08243 4.57874C3.25875 4.33678 3.60299 4.29506 3.84648 4.47862C4.08157 4.65383 4.13195 4.99591 3.94807 5.23787C3.83808 5.3797 3.67855 5.44645 3.51063 5.44645C3.39309 5.44645 3.28394 5.41308 3.18318 5.33799C2.93969 5.15443 2.89855 4.81235 3.08243 4.57874ZM13.9724 3.36904C14.1655 3.14376 14.5089 3.11039 14.7365 3.30312C14.9715 3.50253 14.9959 3.84461 14.8036 4.07071C14.6945 4.19503 14.5425 4.26178 14.3838 4.26178C14.2654 4.26178 14.1403 4.22006 14.0312 4.13746C13.8045 3.94473 13.7709 3.60265 13.9724 3.36904ZM4.39223 3.22712C4.62732 3.04356 4.97156 3.07693 5.15628 3.31055C5.34939 3.53582 5.3158 3.8779 5.08071 4.07063C4.97996 4.15323 4.86241 4.19494 4.73647 4.19494C4.57778 4.19494 4.42581 4.1282 4.31666 3.9947C4.12439 3.76109 4.15797 3.41901 4.39223 3.22712ZM12.4359 2.50992C12.5702 2.24293 12.8977 2.13447 13.1664 2.27631C13.435 2.4098 13.5442 2.73519 13.4099 3.00218C13.3091 3.19324 13.116 3.30254 12.9145 3.30254C12.8389 3.30254 12.755 3.27751 12.671 3.24414C12.4023 3.11064 12.2932 2.77607 12.4359 2.50992ZM5.97952 2.21773C6.24736 2.09258 6.57564 2.20105 6.70914 2.46887C6.84348 2.74337 6.72678 3.06876 6.45726 3.19391C6.38169 3.23563 6.29857 3.25231 6.22301 3.25231C6.0131 3.25231 5.81999 3.1355 5.72679 2.94361C5.5933 2.67745 5.71084 2.35123 5.97952 2.21773ZM10.7312 2.03443C10.8076 1.74241 11.1007 1.55803 11.3945 1.62477C11.6884 1.69986 11.8647 1.99271 11.7975 2.28473C11.7388 2.5342 11.5121 2.7019 11.2686 2.7019C11.2274 2.7019 11.1846 2.69356 11.1426 2.68521C10.8488 2.61847 10.6649 2.32561 10.7312 2.03443ZM7.75841 1.60074C8.05312 1.54234 8.34698 1.72506 8.41415 2.01791C8.47292 2.30993 8.28821 2.60111 7.99434 2.65952C7.96076 2.66786 7.91878 2.67704 7.8768 2.67704C7.62491 2.67704 7.40577 2.50099 7.34784 2.25069C7.28678 1.98598 7.43388 1.71989 7.68129 1.63044L7.75841 1.60909L7.75841 1.60074ZM9.52244 1.41644C9.8247 1.41644 10.0674 1.6584 10.0674 1.95959C10.0674 2.25077 9.8247 2.50108 9.52244 2.50108C9.22018 2.50108 8.97669 2.25077 8.97669 1.95959C8.97669 1.6584 9.22018 1.41644 9.52244 1.41644Z" id="SafteyBorders" fill-rule="evenodd" stroke="none" />
  </g>
</svg>