<?xml version="1.0" encoding="utf-8"?>
<svg width="13px" height="13px" viewBox="0 0 13 13" version="1.1" xmlns:xlink="http://www.w3.org/1999/xlink" xmlns="http://www.w3.org/2000/svg">
  <defs>
    <filter id="filter_1">
      <feColorMatrix in="SourceGraphic" type="matrix" values="0 0 0 0 1 0 0 0 0 1 0 0 0 0 1 0 0 0 1 0" color-interpolation-filters="sRGB" />
    </filter>
  </defs>
  <g id="SystemOperationAlgorithm" fill-opacity="1" filter="url(#filter_1)">
    <path d="M0 0L13 0L13 13L0 13L0 0Z" id="SystemOperationAlgorithm" fill="none" fill-rule="evenodd" stroke="none" />
    <g id="ActionsRobot">
      <path d="M0 0L13 0L13 13L0 13L0 0Z" id="BG" fill="none" fill-rule="evenodd" stroke="none" />
      <path d="M6.5 1.625C6.79915 1.625 7.04167 1.86751 7.04167 2.16667L7.04178 2.74187C9.15616 3.00559 10.7975 4.7926 10.8328 6.97001L10.8333 7.04167L11.1867 7.15478C11.2989 7.19068 11.375 7.29496 11.375 7.41273L11.375 8.28144C11.375 8.39568 11.3033 8.49763 11.1958 8.53629L10.8333 8.66667L10.8333 10.8333C10.8333 11.1325 10.5908 11.375 10.2917 11.375L2.70833 11.375C2.40918 11.375 2.16667 11.1325 2.16667 10.8333L2.16667 8.66667L1.80417 8.53629C1.7034 8.50005 1.6341 8.40818 1.62583 8.3027L1.625 8.28144L1.625 7.41273C1.625 7.30232 1.69189 7.20377 1.79267 7.1623L1.81327 7.15478L2.16667 7.04167C2.16667 4.83187 3.82076 3.0084 5.95835 2.74186L5.95833 2.16667C5.95833 1.86751 6.20085 1.625 6.5 1.625ZM4.60417 6.5C4.15544 6.5 3.79167 6.86377 3.79167 7.3125C3.79167 7.76123 4.15544 8.125 4.60417 8.125C5.0529 8.125 5.41667 7.76123 5.41667 7.3125C5.41667 6.86377 5.0529 6.5 4.60417 6.5ZM8.39583 6.5C7.9471 6.5 7.58333 6.86377 7.58333 7.3125C7.58333 7.76123 7.9471 8.125 8.39583 8.125C8.84456 8.125 9.20833 7.76123 9.20833 7.3125C9.20833 6.86377 8.84456 6.5 8.39583 6.5Z" id="Shape" fill="#21242B" fill-rule="evenodd" stroke="none" />
    </g>
  </g>
</svg>