<?xml version="1.0" encoding="utf-8"?>
<svg width="19.359375px" height="20.168503px" viewBox="0 0 19.359375 20.168503" version="1.1" xmlns:xlink="http://www.w3.org/1999/xlink" xmlns="http://www.w3.org/2000/svg">
  <g id="SystemOperationLockedFill" transform="translate(-1.0498047 -1.0942078)">
    <g id="Combined-Shape" transform="translate(1.05 1.0942041)">
      <path d="M0.898097 0C0.680747 0 0.467597 0.0820653 0.300647 0.238536L0.300237 0.238922C0.0848283 0.441498 -0.362369 0.862055 0.555797 2.30439C0.721697 2.56481 0.932747 2.82633 1.0514 2.96748C1.085 3.03751 1.12595 3.11958 1.1606 3.17429C1.21205 3.25854 1.27925 3.34608 1.61 3.75859C1.6961 3.86473 1.7717 3.95883 1.799 3.99494C1.85675 4.07372 1.946 4.23129 2.0174 4.35603C2.0384 4.39213 2.07515 4.46435 2.1203 4.55079C2.2778 4.85279 2.39225 5.06616 2.4899 5.22373L2.25575 7.76119C2.2295 8.03802 2.324 8.31267 2.513 8.50853L3.0758 9.09502C3.24275 9.2701 3.4706 9.36748 3.70685 9.36748C3.94415 9.36748 4.17095 9.2701 4.3379 9.09502L5.012 8.39254L4.98785 8.86962C4.9742 9.13332 5.06975 9.39046 5.24825 9.57647L5.5559 9.89708C5.72495 10.0732 5.95175 10.1695 6.18695 10.1695C6.2237 10.1695 6.26045 10.1673 6.29825 10.163L6.5135 10.1345C6.7109 10.1094 6.8936 10.0152 7.0343 9.86972L7.76405 9.10815C7.8134 9.05673 7.8554 9.00202 7.8911 8.94293C7.9541 8.90354 8.0129 8.85649 8.0675 8.79959L8.4497 8.4002C8.50325 8.3444 8.54945 8.28312 8.5862 8.21747C8.6429 8.18136 8.69645 8.1376 8.7458 8.08617L9.47555 7.3246C9.61625 7.17907 9.7055 6.98759 9.7307 6.78297L9.75695 6.55756C9.7916 6.27307 9.69815 5.98748 9.50285 5.78506L9.1952 5.46336C9.0272 5.28829 8.8004 5.1909 8.56415 5.1909C8.5484 5.1909 8.53265 5.192 8.5169 5.19309L8.0591 5.21826L8.7332 4.51578C8.90015 4.34071 8.99465 4.10436 8.99465 3.85816C8.99465 3.61087 8.90015 3.37453 8.7332 3.19945L8.1704 2.61296C8.0024 2.43789 7.77455 2.3405 7.53935 2.3405C7.511 2.3405 7.4816 2.3416 7.45325 2.34488L5.0183 2.58998C4.8671 2.48822 4.66235 2.36895 4.37255 2.20482C4.2896 2.15777 4.2203 2.11947 4.1846 2.09759C4.0649 2.02209 3.9116 1.92689 3.83705 1.86781C3.80345 1.84045 3.71315 1.76057 3.61025 1.67085C3.2165 1.32727 3.1325 1.25724 3.0527 1.20362C2.99915 1.16861 2.9204 1.12484 2.8532 1.08983C2.7167 0.966182 2.46575 0.746247 2.21585 0.573363C1.78745 0.276834 1.2572 0.0765943 1.1984 0.053616C1.0997 0.0175073 0.998897 0 0.898097 0ZM9.82961 1.14607C10.0018 0.946924 10.2444 0.838598 10.4932 0.838598C10.594 0.838598 10.6948 0.856105 10.7935 0.892214C10.8523 0.915192 11.3826 1.11543 11.811 1.41196C12.0609 1.58485 12.3118 1.80478 12.4483 1.92843C12.5155 1.96344 12.5943 2.00721 12.6478 2.04222C12.7287 2.09584 12.8116 2.16587 13.2054 2.51054C13.3093 2.60027 13.3986 2.67905 13.4322 2.7064C13.5067 2.76549 13.66 2.86069 13.7797 2.93619C13.8154 2.95807 13.8847 2.99637 13.9677 3.04342C14.2575 3.20755 14.4622 3.32682 14.6134 3.42858L17.0484 3.18348C17.0767 3.18129 17.1061 3.1791 17.1345 3.1791C17.3697 3.1791 17.5975 3.27648 17.7655 3.45156L18.3283 4.03805C18.4953 4.21312 18.5898 4.44947 18.5898 4.69676C18.5898 4.94296 18.4953 5.17931 18.3283 5.35438L17.6542 6.05686L18.112 6.03169C18.1278 6.0306 18.1435 6.0295 18.1593 6.0295C18.3955 6.0295 18.6223 6.12798 18.7903 6.30196L19.098 6.62365C19.2933 6.82608 19.3867 7.11167 19.3521 7.39616L19.3258 7.62157C19.3006 7.82618 19.2114 8.01767 19.0707 8.1632L18.3409 8.92477C18.2916 8.97619 18.238 9.01996 18.1813 9.05607C18.1446 9.12172 18.0984 9.183 18.0448 9.2399L17.6626 9.63819C17.608 9.69509 17.5492 9.74214 17.4862 9.78153C17.4505 9.84061 17.4085 9.89642 17.3592 9.94675L16.6294 10.7083C16.4887 10.8538 16.306 10.9479 16.1086 10.9731L15.8934 11.0016C15.8556 11.0059 15.8188 11.0081 15.7821 11.0081C15.5469 11.0081 15.3201 10.9118 15.151 10.7368L14.8434 10.4151C14.6638 10.2291 14.5693 9.97192 14.583 9.70822L14.6071 9.23114L13.933 9.93362C13.7661 10.1087 13.5393 10.2061 13.302 10.2061C13.0657 10.2061 12.8379 10.1087 12.6709 9.93362L12.1081 9.34713C11.9191 9.15127 11.8246 8.87662 11.8509 8.60088L12.085 6.06233C11.9874 5.90476 11.8729 5.69139 11.7154 5.38939C11.6703 5.30295 11.6335 5.23073 11.6125 5.19462C11.5411 5.06988 11.4519 4.91232 11.3941 4.83354C11.3668 4.79743 11.2912 4.70442 11.2051 4.59719C10.8744 4.18467 10.8072 4.09714 10.7557 4.01288C10.7211 3.95817 10.6801 3.87611 10.6465 3.80608C10.5279 3.66493 10.3168 3.40341 10.1509 3.14299C9.2849 1.78165 9.67933 1.32142 9.82894 1.14685L9.82961 1.14607ZM0.898097 0.930073C0.898097 0.930073 1.3727 1.10624 1.7234 1.34915C2.02265 1.55596 2.35025 1.8689 2.35025 1.8689C2.35025 1.8689 2.4983 1.93893 2.57285 1.98817C2.6474 2.03741 3.1997 2.5298 3.29105 2.60311C3.3824 2.67642 3.5735 2.80007 3.72575 2.89526C3.878 2.98937 4.5353 3.33732 4.6634 3.47082C4.7138 3.52334 4.74005 3.55179 4.74005 3.55179L7.53935 3.27058L8.10215 3.85816L6.4127 5.61764L6.96605 6.20961L8.56415 6.12098L8.8718 6.44267L8.8445 6.66699L8.11475 7.42855L7.96355 7.27646L7.76825 7.47998L7.21175 6.90005L7.81865 7.74368L7.43645 8.14197L6.6269 7.50952L7.1834 8.08945L6.98705 8.29407L7.133 8.45054L6.40325 9.2121L6.18695 9.23946L5.8793 8.91886L5.9633 7.25348L5.3963 6.67793L3.70685 8.43741L3.14405 7.85091L3.4139 4.93486L3.3362 4.85389C3.2081 4.7204 2.8742 4.03542 2.78285 3.87786C2.6915 3.7192 2.5739 3.51896 2.50355 3.42376C2.43215 3.32857 1.9607 2.75302 1.91345 2.67533C1.8662 2.59873 1.799 2.44336 1.799 2.44336C1.799 2.44336 1.4987 2.10306 1.2992 1.79012C1.06715 1.42465 0.898097 0.930073 0.898097 0.930073ZM11.3185 2.18775C10.9678 1.94484 10.4932 1.76867 10.4932 1.76867C10.4932 1.76867 10.6623 2.26325 10.8943 2.62872C11.0938 2.94166 11.3941 3.28196 11.3941 3.28196C11.3941 3.28196 11.4613 3.43733 11.5086 3.51393C11.5558 3.59162 12.0273 4.16717 12.0987 4.26236C12.169 4.35756 12.2866 4.5578 12.378 4.71646C12.4693 4.87402 12.8032 5.55899 12.9313 5.69249L13.009 5.77346L12.7392 8.68951L13.302 9.27601L14.9914 7.51652L15.5584 8.09208L15.4744 9.75745L15.7821 10.0781L15.9984 10.0507L16.7281 9.28914L16.5822 9.13266L16.7785 8.92805L16.222 8.34812L17.0316 8.98057L17.4138 8.58228L16.8069 7.73865L17.3634 8.31858L17.5587 8.11506L17.7099 8.26715L18.4396 7.50558L18.4669 7.28127L18.1593 6.95958L16.5612 7.04821L16.0078 6.45624L17.6973 4.69676L17.1345 4.10917L14.3352 4.39038C14.3352 4.39038 14.3089 4.36194 14.2585 4.30941C14.1304 4.17592 13.4721 3.82796 13.3209 3.73386C13.1686 3.63867 12.9775 3.51502 12.8862 3.44171C12.7948 3.3684 12.2425 2.87601 12.168 2.82677C12.0934 2.77753 11.9454 2.7075 11.9454 2.7075C11.9454 2.7075 11.6178 2.39456 11.3185 2.18775ZM1.70292 9.99906C1.46982 9.99906 1.24197 10.0943 1.07187 10.2715C0.875522 10.4761 0.468122 10.9007 1.36062 12.3034C1.52652 12.5639 1.73757 12.8254 1.85622 12.9665C1.88982 13.0366 1.93077 13.1186 1.96542 13.1733C2.01687 13.2576 2.08407 13.3451 2.41377 13.7566C2.49987 13.8638 2.57547 13.9579 2.60277 13.994C2.66157 14.0728 2.75082 14.2303 2.82222 14.3551C2.84427 14.3923 2.88102 14.4634 2.92512 14.5499C3.08262 14.8529 3.19707 15.0652 3.29472 15.2228L3.06057 17.7613C3.03432 18.0371 3.12882 18.3117 3.31782 18.5076L3.88062 19.0952C4.04757 19.2691 4.27542 19.3665 4.51167 19.3665C4.74792 19.3665 4.97577 19.2691 5.14272 19.0952L5.81682 18.3916L5.79267 18.8687C5.77902 19.1324 5.87352 19.3895 6.05307 19.5755L6.36072 19.8972C6.52977 20.0723 6.75657 20.1686 6.99177 20.1686C7.02852 20.1686 7.06527 20.1664 7.10307 20.162L7.31832 20.1336C7.51572 20.1084 7.69842 20.0154 7.83912 19.8688L8.56887 19.1072C8.61822 19.0569 8.66022 19.0011 8.69592 18.942C8.75892 18.9026 8.81772 18.8555 8.87232 18.7986L9.25452 18.4004C9.30807 18.3435 9.35427 18.2822 9.39102 18.2165C9.44772 18.1804 9.50127 18.1367 9.55062 18.0852L10.2804 17.3237C10.4211 17.1781 10.5103 16.9866 10.5355 16.782L10.5618 16.5566C10.5964 16.2721 10.503 15.9865 10.3077 15.7841L10 15.4624C9.83202 15.2884 9.60522 15.19 9.36897 15.19C9.35322 15.19 9.33747 15.1911 9.32172 15.1921L8.86392 15.2173L9.53802 14.5148C9.70497 14.3398 9.79947 14.1034 9.79947 13.8572C9.79947 13.6099 9.70497 13.3736 9.53802 13.1996L8.97522 12.612C8.80722 12.4369 8.57937 12.3396 8.34417 12.3396C8.31582 12.3396 8.28642 12.3417 8.25807 12.3439L5.82312 12.589C5.67192 12.4873 5.46822 12.368 5.17737 12.2039C5.09442 12.1568 5.02512 12.1185 4.98942 12.0966C4.86972 12.0211 4.71642 11.9259 4.64292 11.8669C4.60827 11.8395 4.51797 11.7596 4.41402 11.6699C4.02132 11.3263 3.93732 11.2563 3.85752 11.2027C3.80397 11.1677 3.72522 11.1239 3.65802 11.0889C3.52152 10.9652 3.27057 10.7453 3.02067 10.5724C2.59227 10.2759 2.06202 10.0757 2.00322 10.0527C1.90452 10.0166 1.80372 9.99906 1.70292 9.99906ZM1.70292 10.9291C1.70292 10.9291 2.17752 11.1053 2.52822 11.3482C2.82747 11.555 3.15507 11.868 3.15507 11.868C3.15507 11.868 3.30312 11.938 3.37767 11.9872C3.45222 12.0365 4.00452 12.5289 4.09587 12.6022C4.18722 12.6755 4.37832 12.7991 4.53057 12.8943C4.68177 12.9884 5.34012 13.3364 5.46822 13.4699C5.51862 13.5224 5.54487 13.5508 5.54487 13.5508L8.34417 13.2696L8.90697 13.8572L7.21752 15.6167L7.77087 16.2087L9.36897 16.12L9.67662 16.4417L9.64932 16.666L8.91957 17.4276L8.76837 17.2755L8.57307 17.479L8.01657 16.8991L8.62347 17.7427L8.24127 18.141L7.43172 17.5097L7.98822 18.0885L7.79187 18.2931L7.93782 18.4496L7.20807 19.2112L6.99177 19.2385L6.68412 18.9179L6.76812 17.2525L6.20112 16.677L4.51167 18.4365L3.94887 17.85L4.21872 14.9339L4.14102 14.8529C4.01292 14.7195 3.67902 14.0345 3.58767 13.8769C3.49632 13.7183 3.37872 13.518 3.30837 13.4228C3.23697 13.3276 2.76552 12.7521 2.71827 12.6744C2.67102 12.5978 2.60382 12.4424 2.60382 12.4424C2.60382 12.4424 2.30352 12.1021 2.10402 11.7892C1.87197 11.4237 1.70292 10.9291 1.70292 10.9291Z" id="Combined-Shape" fill-rule="evenodd" stroke="none" />
    </g>
  </g>
</svg>